# Blender 3.3.1
# www.blender.org
mtllib Diorite.mtl
o Diorite
v -18.000000 0.000003 -18.000000
v -18.000000 1.000003 -18.000000
v -18.000000 0.000003 -17.000000
v -18.000000 1.000003 -17.000000
v -18.000000 2.000003 -17.000000
v -18.000000 3.000003 -16.999998
v -18.000000 0.000003 -15.999999
v -18.000000 1.000002 -15.999999
v -18.000000 2.000002 -15.999999
v -18.000000 3.000002 -15.999999
v -18.000000 -3.000000 0.000000
v -18.000000 -2.000000 0.000000
v -18.000000 -3.000000 1.000000
v -18.000000 -2.000000 1.000000
v -18.000000 -3.000000 2.000000
v -18.000000 -2.000000 2.000000
v -18.000000 -3.000000 3.000000
v -18.000000 -2.000000 3.000000
v -18.000000 -3.000001 4.000000
v -18.000000 -2.000001 4.000000
v -5.000000 6.000003 -18.999998
v -5.000000 7.000003 -18.999998
v -5.000000 8.000003 -18.999998
v -4.000000 6.000003 -18.999998
v -4.000000 7.000003 -18.999998
v -4.000000 8.000003 -18.999998
v -3.000000 6.000003 -18.999998
v -3.000000 7.000003 -18.999998
v -3.000000 8.000003 -18.999998
v 11.000000 -3.000003 19.000000
v 11.000000 -2.000003 19.000000
v 11.000000 -1.000003 19.000000
v 12.000000 -3.000003 19.000000
v 12.000000 -2.000003 19.000000
v 12.000000 -1.000003 19.000000
v 13.000000 -3.000003 19.000000
v 13.000000 -2.000003 19.000000
v 13.000000 -1.000003 19.000000
v 14.000000 -3.000003 19.000000
v 14.000000 -2.000003 19.000000
v 14.000000 -1.000003 19.000000
v 15.000000 -3.000003 19.000000
v 15.000000 -2.000003 19.000000
vn -1.0000 -0.0000 -0.0000
vn -0.0000 -0.0000 -1.0000
vn -0.0000 -0.0000 1.0000
vt 0.000000 0.000000
vt 0.000000 1.000000
vt 1.000000 0.000000
vt 0.000000 0.000000
vt 1.000000 1.000000
vt 0.000000 1.000000
vt 0.000000 0.000000
vt 0.000000 1.000000
vt 0.000000 0.000000
vt 0.000000 1.000000
vt 1.000000 0.000000
vt 1.000000 1.000000
vt 1.000000 0.000000
vt 1.000000 1.000000
vt 1.000000 0.000000
vt 1.000000 1.000000
vt 0.000000 0.000000
vt 0.000000 1.000000
vt 1.000000 0.000000
vt 0.000000 0.000000
vt 1.000000 1.000000
vt 0.000000 1.000000
vt 1.000000 0.000000
vt 0.000000 0.000000
vt 1.000000 1.000000
vt 0.000000 1.000000
vt 1.000000 0.000000
vt 0.000000 0.000000
vt 1.000000 1.000000
vt 0.000000 1.000000
vt 1.000000 0.000000
vt 1.000000 1.000000
vt 1.000000 0.000000
vt 1.000000 1.000000
vt 1.000000 0.000000
vt 1.000000 1.000000
vt 0.000000 0.000000
vt 1.000000 0.000000
vt 0.000000 1.000000
vt 0.000000 0.000000
vt 1.000000 1.000000
vt 1.000000 0.000000
vt 0.000000 1.000000
vt 1.000000 1.000000
vt 0.000000 0.000000
vt 0.000000 1.000000
vt 0.000000 0.000000
vt 0.000000 1.000000
vt 0.000000 0.000000
vt 0.000000 1.000000
vt 0.000000 0.000000
vt 0.000000 1.000000
vt 1.000000 0.000000
vt 0.000000 0.000000
vt 1.000000 1.000000
vt 1.000000 0.000000
vt 0.000000 1.000000
vt 0.000000 0.000000
vt 1.000000 1.000000
vt 0.000000 1.000000
vt 1.000000 0.000000
vt 0.000000 0.000000
vt 1.000000 1.000000
vt 1.000000 0.000000
vt 0.000000 1.000000
vt 0.000000 0.000000
vt 1.000000 1.000000
vt 0.000000 1.000000
vt 1.000000 0.000000
vt 0.000000 0.000000
vt 1.000000 1.000000
vt 1.000000 0.000000
vt 0.000000 1.000000
vt 1.000000 1.000000
vt 1.000000 0.000000
vt 1.000000 1.000000
s 0
usemtl diorite.001
f 3/3/1 4/5/1 2/2/1 1/1/1
f 7/11/1 8/12/1 4/6/1 3/4/1
f 8/13/1 9/14/1 5/8/1 4/7/1
f 9/15/1 10/16/1 6/10/1 5/9/1
f 13/19/1 14/21/1 12/18/1 11/17/1
f 15/23/1 16/25/1 14/22/1 13/20/1
f 17/27/1 18/29/1 16/26/1 15/24/1
f 19/31/1 20/32/1 18/30/1 17/28/1
f 21/33/2 22/34/2 25/39/2 24/37/2
f 22/35/2 23/36/2 26/43/2 25/40/2
f 24/38/2 25/41/2 28/46/2 27/45/2
f 25/42/2 26/44/2 29/48/2 28/47/2
f 30/49/3 33/53/3 34/55/3 31/50/3
f 31/51/3 34/56/3 35/59/3 32/52/3
f 33/54/3 36/61/3 37/63/3 34/57/3
f 34/58/3 37/64/3 38/67/3 35/60/3
f 36/62/3 39/69/3 40/71/3 37/65/3
f 37/66/3 40/72/3 41/74/3 38/68/3
f 39/70/3 42/75/3 43/76/3 40/73/3
