# Blender 3.3.1
# www.blender.org
mtllib Dirt.mtl
o Dirt
v -17.000000 6.000002 -13.999999
v -17.000000 6.000002 -14.999999
v -17.000000 7.000002 -13.999999
v -17.000000 7.000002 -14.999999
v -17.000000 8.000002 -13.999999
v -17.000000 8.000003 -14.999999
v -17.000000 9.000002 -13.999998
v -17.000000 8.000002 -12.999999
v -17.000000 9.000002 -12.999998
v -17.000000 8.000002 -11.999999
v -17.000000 9.000002 -11.999998
v -17.000000 8.000002 -10.999999
v -17.000000 9.000002 -10.999998
v -17.000000 7.000001 -9.999999
v -17.000000 8.000002 -9.999999
v -17.000000 9.000002 -9.999998
v -17.000000 7.000001 -8.999999
v -17.000000 8.000002 -8.999999
v -17.000000 7.000001 -7.999999
v -17.000000 8.000001 -7.999999
v -17.000000 7.000001 -6.999999
v -17.000000 8.000001 -6.999999
v -17.000000 7.000001 -5.999999
v -17.000000 8.000001 -5.999999
v -17.000000 7.000001 -4.999999
v -17.000000 8.000001 -4.999999
v -17.000000 7.000000 -3.999999
v -17.000000 8.000001 -3.999999
v -17.000000 7.000000 -2.999999
v -17.000000 8.000001 -2.999999
v -17.000000 7.000000 -1.999999
v -17.000000 8.000000 -1.999999
v -17.000000 7.000000 -0.999999
v -17.000000 8.000000 -0.999999
v -17.000000 7.000000 0.000001
v -17.000000 8.000000 0.000001
v -17.000000 7.000000 1.000001
v -17.000000 8.000000 1.000001
v -17.000000 7.000000 2.000001
v -17.000000 8.000000 2.000001
v -17.000000 5.000000 4.000001
v -17.000000 6.000000 4.000001
v -17.000000 7.000000 4.000001
v -17.000000 4.999999 5.000001
v -17.000000 5.999999 5.000001
v -17.000000 6.999999 5.000001
v -17.000000 7.999999 5.000001
v -17.000000 5.999999 6.000001
v -17.000000 6.999999 6.000001
v -17.000000 7.999999 6.000001
v -17.000000 4.999998 15.000001
v -17.000000 5.999998 15.000001
v -16.000000 3.999997 16.000000
v -17.000000 4.999998 16.000000
v -16.000000 4.999998 16.000000
v -17.000000 5.999998 16.000002
v -17.000000 6.999998 16.000002
v -16.000000 6.999998 16.000002
v -17.000000 7.999998 16.000002
v -16.000000 7.999998 16.000002
v -15.000000 3.999997 16.000000
v -15.000000 4.999998 16.000000
v -14.000000 3.999997 16.000000
v -14.000000 4.999998 16.000000
v -13.000000 2.999997 16.000000
v -13.000000 3.999997 16.000000
v -13.000000 4.999998 16.000000
v -12.000000 2.999997 16.000000
v -12.000000 3.999997 16.000000
v -11.000000 5.000002 -14.999999
v -11.000000 6.000002 -14.999999
v -11.000000 7.000002 -14.999999
v -11.000000 2.999997 16.000000
v -11.000000 3.999997 16.000000
v -10.000000 4.000002 -14.999999
v -10.000000 5.000002 -14.999999
v -10.000000 6.000002 -14.999999
v -10.000000 7.000002 -14.999999
v -10.000000 2.999997 16.000000
v -10.000000 3.999997 16.000000
v -9.000000 4.000002 -14.999999
v -9.000000 5.000002 -14.999999
v -9.000000 6.000002 -14.999999
v -9.000000 2.999997 16.000000
v -9.000000 3.999997 16.000000
v -9.000000 4.999998 16.000000
v -8.000000 2.999997 16.000000
v -8.000000 3.999997 16.000000
v -8.000000 4.999998 16.000000
v -7.000000 6.000001 -8.999999
v -7.000000 5.000001 -7.999999
v -7.000000 5.000001 -8.999999
v -7.000000 6.000001 -7.999999
v -7.000000 4.000001 -7.000000
v -7.000000 4.000001 -8.000000
v -7.000000 5.000001 -6.999999
v -7.000000 4.000001 -6.000000
v -7.000000 5.000001 -5.999999
v -5.000000 4.000000 -2.999999
v -5.000000 5.000000 -2.999999
v -4.000000 4.000000 -2.999999
v -4.000000 5.000000 -2.999999
v -3.000000 2.000002 -15.000000
v -3.000000 3.000002 -14.999999
v -2.000000 2.000002 -15.000000
v -2.000000 3.000002 -14.999999
v -1.000000 2.000002 -15.000000
v -1.000000 3.000002 -14.999999
v 0.000000 2.000002 -15.000000
v 0.000000 3.000002 -14.999999
v 0.000000 1.999997 16.000000
v 0.000000 2.999997 16.000000
v 0.000000 3.999997 16.000000
v 1.000000 2.000002 -15.000000
v 1.000000 3.000002 -14.999999
v 1.000000 1.999997 16.000000
v 1.000000 2.999997 16.000000
v 1.000000 3.999997 16.000000
v 2.000000 2.000002 -15.000000
v 2.000000 3.000002 -14.999999
v 2.000000 1.999997 16.000000
v 2.000000 2.999997 16.000000
v 2.000000 3.999997 16.000000
v 3.000000 2.000002 -15.000000
v 3.000000 3.000002 -14.999999
v 3.000000 1.999997 16.000000
v 3.000000 2.999997 16.000000
v 3.000000 3.999997 16.000000
v 4.000000 2.000002 -15.000000
v 4.000000 3.000002 -14.999999
v 4.000000 1.999997 16.000000
v 4.000000 2.999997 16.000000
v 4.000000 3.999997 16.000000
v 5.000000 1.000003 -15.000000
v 5.000000 2.000002 -15.000000
v 5.000000 3.000002 -14.999999
v 5.000000 2.999997 16.000000
v 5.000000 3.999997 16.000000
v 5.000000 4.999998 16.000000
v 6.000000 1.000003 -15.000000
v 6.000000 2.000002 -15.000000
v 6.000000 2.999997 16.000000
v 6.000000 3.999997 16.000000
v 6.000000 4.999998 16.000000
v 7.000000 1.000003 -15.000000
v 7.000000 2.000002 -15.000000
v 7.000000 3.999997 16.000000
v 7.000000 4.999998 16.000000
v 8.000000 1.000003 -15.000000
v 8.000000 2.000002 -15.000000
v 8.000000 2.999997 16.000000
v 8.000000 3.999997 16.000000
v 8.000000 4.999998 16.000000
v 9.000000 1.000003 -15.000000
v 9.000000 2.000002 -15.000000
v 9.000000 2.999997 16.000000
v 9.000000 3.999997 16.000000
v 9.000000 4.999998 16.000000
v 10.000000 1.000003 -15.000000
v 10.000000 2.000002 -15.000000
v 10.000000 2.999997 16.000000
v 10.000000 3.999997 16.000000
v 10.000000 4.999998 16.000000
v 11.000000 1.000003 -15.000000
v 11.000000 2.000002 -15.000000
v 11.000000 2.999997 16.000000
v 11.000000 3.999997 16.000000
v 11.000000 4.999998 16.000000
v 12.000000 1.000003 -15.000000
v 12.000000 2.000002 -15.000000
v 12.000000 1.999997 16.000000
v 12.000000 2.999997 16.000000
v 12.000000 3.999997 16.000000
v 13.000000 1.000003 -15.000000
v 13.000000 2.000002 -15.000000
v 13.000000 1.999997 16.000000
v 13.000000 2.999997 16.000000
v 13.000000 3.999997 16.000000
v 14.000000 1.000003 -15.000000
v 14.000000 2.000002 -15.000000
v 15.000000 1.000003 -15.000000
v 15.000000 2.000002 -15.000000
v 16.000000 1.000003 -15.000000
v 16.000000 2.000002 -15.000000
v 17.000000 1.000003 -15.000000
v 17.000000 1.000002 -14.000000
v 17.000000 2.000002 -15.000000
v 17.000000 2.000002 -14.000000
v 17.000000 1.000002 -13.000000
v 17.000000 2.000002 -13.000000
v 17.000000 1.000002 -12.000000
v 17.000000 2.000002 -12.000000
v 17.000000 1.000002 -11.000000
v 17.000000 2.000002 -11.000000
v 17.000000 1.000002 -10.000000
v 17.000000 2.000002 -10.000000
v 17.000000 1.000001 -9.000000
v 17.000000 2.000001 -9.000000
v 17.000000 1.000001 -8.000000
v 17.000000 2.000001 -8.000000
v 17.000000 1.000001 -7.000000
v 17.000000 2.000001 -7.000000
v 17.000000 1.000001 -6.000000
v 17.000000 2.000001 -6.000000
v 17.000000 1.000001 -5.000000
v 17.000000 2.000001 -5.000000
v 17.000000 1.000001 -4.000000
v 17.000000 2.000001 -4.000000
v 17.000000 1.000000 -3.000000
v 17.000000 2.000000 -3.000000
v 17.000000 1.000000 -2.000000
v 17.000000 2.000000 -2.000000
v 17.000000 3.000000 -2.000000
v 17.000000 2.000000 -1.000000
v 17.000000 3.000000 -1.000000
v 17.000000 2.000000 0.000000
v 17.000000 3.000000 0.000000
v 17.000000 2.000000 1.000000
v 17.000000 3.000000 1.000000
v 17.000000 2.000000 2.000000
v 17.000000 3.000000 2.000000
v 17.000000 2.000000 3.000000
v 17.000000 3.000000 3.000000
v 17.000000 1.999999 4.000000
v 17.000000 2.999999 4.000000
v 17.000000 1.999999 5.000000
v 17.000000 2.999999 5.000000
v 17.000000 1.999999 6.000000
v 17.000000 2.999999 6.000000
v 17.000000 0.999999 7.000000
v 17.000000 1.999999 7.000000
v 17.000000 2.999999 7.000000
v 17.000000 0.999999 8.000000
v 17.000000 1.999999 8.000000
v 17.000000 2.999999 8.000001
v 17.000000 1.999999 9.000000
v 17.000000 2.999999 9.000001
v 17.000000 1.999998 10.000000
v 17.000000 2.999998 10.000001
vn -1.0000 -0.0000 -0.0000
vn -0.0000 -0.0000 1.0000
vn -0.0000 -0.0000 -1.0000
vn 1.0000 -0.0000 -0.0000
vt 1.000000 0.000000
vt 0.000000 0.000000
vt 1.000000 1.000000
vt 1.000000 0.000000
vt 0.000000 1.000000
vt 0.000000 0.000000
vt 1.000000 1.000000
vt 0.000000 0.000000
vt 0.000000 1.000000
vt 0.000000 1.000000
vt 1.000000 0.000000
vt 0.000000 0.000000
vt 1.000000 1.000000
vt 0.000000 1.000000
vt 1.000000 0.000000
vt 0.000000 0.000000
vt 1.000000 1.000000
vt 0.000000 1.000000
vt 1.000000 0.000000
vt 0.000000 0.000000
vt 1.000000 1.000000
vt 0.000000 1.000000
vt 0.000000 0.000000
vt 1.000000 0.000000
vt 0.000000 1.000000
vt 1.000000 1.000000
vt 1.000000 0.000000
vt 0.000000 0.000000
vt 1.000000 1.000000
vt 0.000000 1.000000
vt 1.000000 0.000000
vt 0.000000 0.000000
vt 1.000000 1.000000
vt 0.000000 1.000000
vt 1.000000 0.000000
vt 0.000000 0.000000
vt 1.000000 1.000000
vt 0.000000 1.000000
vt 1.000000 0.000000
vt 0.000000 0.000000
vt 1.000000 1.000000
vt 0.000000 1.000000
vt 1.000000 0.000000
vt 0.000000 0.000000
vt 1.000000 1.000000
vt 0.000000 1.000000
vt 1.000000 0.000000
vt 0.000000 0.000000
vt 1.000000 1.000000
vt 0.000000 1.000000
vt 1.000000 0.000000
vt 0.000000 0.000000
vt 1.000000 1.000000
vt 0.000000 1.000000
vt 1.000000 0.000000
vt 0.000000 0.000000
vt 1.000000 1.000000
vt 0.000000 1.000000
vt 1.000000 0.000000
vt 0.000000 0.000000
vt 1.000000 1.000000
vt 0.000000 1.000000
vt 1.000000 0.000000
vt 0.000000 0.000000
vt 1.000000 1.000000
vt 0.000000 1.000000
vt 1.000000 0.000000
vt 0.000000 0.000000
vt 1.000000 1.000000
vt 0.000000 1.000000
vt 1.000000 0.000000
vt 1.000000 1.000000
vt 0.000000 0.000000
vt 0.000000 1.000000
vt 0.000000 0.000000
vt 0.000000 1.000000
vt 1.000000 0.000000
vt 1.000000 1.000000
vt 1.000000 0.000000
vt 0.000000 0.000000
vt 1.000000 1.000000
vt 0.000000 1.000000
vt 0.000000 0.000000
vt 0.000000 1.000000
vt 1.000000 0.000000
vt 1.000000 1.000000
vt 1.000000 0.000000
vt 1.000000 1.000000
vt 0.000000 0.000000
vt 0.000000 1.000000
vt 0.000000 0.000000
vt 1.000000 0.000000
vt 0.000000 1.000000
vt 1.000000 1.000000
vt 0.000000 0.000000
vt 1.000000 0.000000
vt 0.000000 1.000000
vt 1.000000 1.000000
vt 1.000000 0.000000
vt 1.000000 1.000000
vt 0.000000 0.000000
vt 0.000000 1.000000
vt 0.000000 0.000000
vt 1.000000 0.000000
vt 0.000000 1.000000
vt 1.000000 1.000000
vt 1.000000 0.000000
vt 1.000000 1.000000
vt 1.000000 0.000000
vt 1.000000 1.000000
vt 1.000000 0.000000
vt 1.000000 1.000000
vt 0.000000 0.000000
vt 0.000000 1.000000
vt 1.000000 0.000000
vt 0.000000 0.000000
vt 1.000000 1.000000
vt 1.000000 0.000000
vt 0.000000 1.000000
vt 0.000000 0.000000
vt 1.000000 1.000000
vt 0.000000 1.000000
vt 1.000000 0.000000
vt 1.000000 1.000000
vt 0.000000 0.000000
vt 0.000000 1.000000
vt 0.000000 0.000000
vt 0.000000 1.000000
vt 0.000000 0.000000
vt 0.000000 1.000000
vt 0.000000 0.000000
vt 0.000000 1.000000
vt 1.000000 0.000000
vt 1.000000 1.000000
vt 1.000000 0.000000
vt 1.000000 1.000000
vt 1.000000 1.000000
vt 0.000000 0.000000
vt 1.000000 1.000000
vt 1.000000 0.000000
vt 0.000000 1.000000
vt 0.000000 0.000000
vt 1.000000 0.000000
vt 1.000000 0.000000
vt 0.000000 1.000000
vt 1.000000 1.000000
vt 0.000000 0.000000
vt 0.000000 1.000000
vt 1.000000 0.000000
vt 1.000000 1.000000
vt 0.000000 0.000000
vt 0.000000 1.000000
vt 1.000000 0.000000
vt 1.000000 1.000000
vt 0.000000 0.000000
vt 1.000000 0.000000
vt 0.000000 1.000000
vt 1.000000 1.000000
vt 0.000000 0.000000
vt 1.000000 0.000000
vt 0.000000 1.000000
vt 1.000000 1.000000
vt 0.000000 0.000000
vt 1.000000 0.000000
vt 0.000000 1.000000
vt 1.000000 1.000000
vt 0.000000 0.000000
vt 0.000000 1.000000
vt 0.000000 0.000000
vt 0.000000 1.000000
vt 0.000000 0.000000
vt 1.000000 0.000000
vt 0.000000 1.000000
vt 1.000000 1.000000
vt 1.000000 0.000000
vt 0.000000 0.000000
vt 1.000000 1.000000
vt 1.000000 0.000000
vt 0.000000 1.000000
vt 0.000000 0.000000
vt 1.000000 1.000000
vt 0.000000 1.000000
vt 0.000000 0.000000
vt 1.000000 0.000000
vt 0.000000 1.000000
vt 1.000000 1.000000
vt 1.000000 0.000000
vt 1.000000 1.000000
vt 1.000000 0.000000
vt 0.000000 0.000000
vt 1.000000 1.000000
vt 0.000000 1.000000
vt 0.000000 0.000000
vt 1.000000 0.000000
vt 0.000000 1.000000
vt 1.000000 1.000000
vt 0.000000 0.000000
vt 1.000000 0.000000
vt 0.000000 1.000000
vt 0.000000 0.000000
vt 1.000000 1.000000
vt 0.000000 1.000000
vt 0.000000 0.000000
vt 1.000000 0.000000
vt 0.000000 1.000000
vt 1.000000 1.000000
vt 1.000000 0.000000
vt 1.000000 1.000000
vt 1.000000 0.000000
vt 0.000000 0.000000
vt 1.000000 1.000000
vt 0.000000 1.000000
vt 1.000000 0.000000
vt 0.000000 0.000000
vt 1.000000 1.000000
vt 0.000000 1.000000
vt 1.000000 0.000000
vt 0.000000 0.000000
vt 1.000000 1.000000
vt 0.000000 1.000000
vt 0.000000 0.000000
vt 0.000000 1.000000
vt 0.000000 0.000000
vt 1.000000 0.000000
vt 0.000000 1.000000
vt 1.000000 1.000000
vt 1.000000 0.000000
vt 1.000000 1.000000
vt 1.000000 0.000000
vt 0.000000 0.000000
vt 1.000000 1.000000
vt 0.000000 1.000000
vt 0.000000 0.000000
vt 1.000000 0.000000
vt 0.000000 1.000000
vt 1.000000 1.000000
vt 1.000000 0.000000
vt 0.000000 0.000000
vt 1.000000 1.000000
vt 0.000000 1.000000
vt 0.000000 0.000000
vt 1.000000 0.000000
vt 0.000000 1.000000
vt 1.000000 1.000000
vt 0.000000 0.000000
vt 1.000000 0.000000
vt 0.000000 1.000000
vt 0.000000 0.000000
vt 1.000000 1.000000
vt 0.000000 1.000000
vt 0.000000 0.000000
vt 1.000000 0.000000
vt 0.000000 1.000000
vt 1.000000 1.000000
vt 1.000000 0.000000
vt 0.000000 0.000000
vt 1.000000 1.000000
vt 1.000000 0.000000
vt 0.000000 1.000000
vt 0.000000 0.000000
vt 1.000000 1.000000
vt 0.000000 1.000000
vt 0.000000 0.000000
vt 1.000000 0.000000
vt 0.000000 1.000000
vt 1.000000 1.000000
vt 1.000000 0.000000
vt 1.000000 1.000000
vt 1.000000 0.000000
vt 0.000000 0.000000
vt 1.000000 1.000000
vt 0.000000 1.000000
vt 0.000000 0.000000
vt 1.000000 0.000000
vt 0.000000 1.000000
vt 1.000000 1.000000
vt 0.000000 0.000000
vt 1.000000 0.000000
vt 0.000000 1.000000
vt 1.000000 1.000000
vt 0.000000 0.000000
vt 1.000000 0.000000
vt 0.000000 1.000000
vt 1.000000 1.000000
vt 0.000000 0.000000
vt 1.000000 0.000000
vt 0.000000 1.000000
vt 0.000000 0.000000
vt 1.000000 1.000000
vt 0.000000 1.000000
vt 0.000000 0.000000
vt 1.000000 0.000000
vt 0.000000 1.000000
vt 1.000000 1.000000
vt 1.000000 0.000000
vt 1.000000 1.000000
vt 1.000000 0.000000
vt 1.000000 1.000000
vt 0.000000 0.000000
vt 1.000000 0.000000
vt 0.000000 1.000000
vt 1.000000 1.000000
vt 0.000000 0.000000
vt 1.000000 0.000000
vt 0.000000 1.000000
vt 1.000000 1.000000
vt 0.000000 0.000000
vt 1.000000 0.000000
vt 0.000000 1.000000
vt 1.000000 1.000000
vt 0.000000 0.000000
vt 1.000000 0.000000
vt 0.000000 0.000000
vt 1.000000 0.000000
vt 0.000000 1.000000
vt 1.000000 1.000000
vt 0.000000 1.000000
vt 1.000000 1.000000
vt 0.000000 0.000000
vt 1.000000 0.000000
vt 0.000000 1.000000
vt 1.000000 1.000000
vt 0.000000 0.000000
vt 1.000000 0.000000
vt 0.000000 1.000000
vt 1.000000 1.000000
vt 0.000000 0.000000
vt 1.000000 0.000000
vt 0.000000 1.000000
vt 1.000000 1.000000
vt 0.000000 0.000000
vt 1.000000 0.000000
vt 0.000000 1.000000
vt 1.000000 1.000000
vt 0.000000 0.000000
vt 1.000000 0.000000
vt 0.000000 1.000000
vt 1.000000 1.000000
vt 0.000000 0.000000
vt 1.000000 0.000000
vt 0.000000 1.000000
vt 1.000000 1.000000
vt 0.000000 0.000000
vt 1.000000 0.000000
vt 0.000000 1.000000
vt 1.000000 1.000000
vt 0.000000 0.000000
vt 1.000000 0.000000
vt 0.000000 1.000000
vt 1.000000 1.000000
vt 0.000000 0.000000
vt 1.000000 0.000000
vt 0.000000 1.000000
vt 1.000000 1.000000
vt 0.000000 0.000000
vt 1.000000 0.000000
vt 0.000000 1.000000
vt 1.000000 1.000000
vt 0.000000 0.000000
vt 1.000000 0.000000
vt 0.000000 1.000000
vt 1.000000 1.000000
vt 0.000000 0.000000
vt 0.000000 1.000000
vt 1.000000 0.000000
vt 1.000000 1.000000
vt 0.000000 0.000000
vt 1.000000 0.000000
vt 0.000000 1.000000
vt 1.000000 1.000000
vt 0.000000 0.000000
vt 1.000000 0.000000
vt 0.000000 1.000000
vt 1.000000 1.000000
vt 0.000000 0.000000
vt 1.000000 0.000000
vt 0.000000 1.000000
vt 1.000000 1.000000
vt 0.000000 0.000000
vt 1.000000 0.000000
vt 0.000000 1.000000
vt 1.000000 1.000000
vt 0.000000 0.000000
vt 1.000000 0.000000
vt 0.000000 1.000000
vt 1.000000 1.000000
vt 0.000000 0.000000
vt 1.000000 0.000000
vt 0.000000 1.000000
vt 1.000000 1.000000
vt 0.000000 0.000000
vt 1.000000 0.000000
vt 0.000000 1.000000
vt 1.000000 1.000000
vt 0.000000 0.000000
vt 1.000000 0.000000
vt 0.000000 1.000000
vt 1.000000 1.000000
vt 1.000000 0.000000
vt 0.000000 0.000000
vt 1.000000 1.000000
vt 1.000000 0.000000
vt 0.000000 1.000000
vt 1.000000 1.000000
vt 0.000000 0.000000
vt 0.000000 1.000000
vt 0.000000 0.000000
vt 1.000000 0.000000
vt 0.000000 1.000000
vt 1.000000 1.000000
vt 0.000000 0.000000
vt 1.000000 0.000000
vt 0.000000 1.000000
vt 1.000000 1.000000
vt 0.000000 0.000000
vt 0.000000 1.000000
s 0
usemtl dirt
f 1/1/1 3/3/1 4/5/1 2/2/1
f 3/4/1 5/7/1 6/9/1 4/6/1
f 8/11/1 9/13/1 7/10/1 5/8/1
f 10/15/1 11/17/1 9/14/1 8/12/1
f 12/19/1 13/21/1 11/18/1 10/16/1
f 15/24/1 16/26/1 13/22/1 12/20/1
f 17/27/1 18/29/1 15/25/1 14/23/1
f 19/31/1 20/33/1 18/30/1 17/28/1
f 21/35/1 22/37/1 20/34/1 19/32/1
f 23/39/1 24/41/1 22/38/1 21/36/1
f 25/43/1 26/45/1 24/42/1 23/40/1
f 27/47/1 28/49/1 26/46/1 25/44/1
f 29/51/1 30/53/1 28/50/1 27/48/1
f 31/55/1 32/57/1 30/54/1 29/52/1
f 33/59/1 34/61/1 32/58/1 31/56/1
f 35/63/1 36/65/1 34/62/1 33/60/1
f 37/67/1 38/69/1 36/66/1 35/64/1
f 39/71/1 40/72/1 38/70/1 37/68/1
f 44/77/1 45/78/1 42/74/1 41/73/1
f 45/79/1 46/81/1 43/76/1 42/75/1
f 48/85/1 49/86/1 46/82/1 45/80/1
f 49/87/1 50/88/1 47/84/1 46/83/1
f 54/92/1 56/94/1 52/90/1 51/89/1
f 57/95/2 58/96/2 60/98/2 59/97/2
f 53/91/2 61/99/2 62/100/2 55/93/2
f 63/101/2 66/104/2 67/106/2 64/102/2
f 65/103/2 68/107/2 69/108/2 66/105/2
f 70/109/3 71/110/3 77/119/3 76/116/3
f 71/111/3 72/112/3 78/122/3 77/120/3
f 73/113/2 79/123/2 80/124/2 74/114/2
f 75/115/3 76/117/3 82/126/3 81/125/3
f 76/118/3 77/121/3 83/128/3 82/127/3
f 84/129/2 87/133/2 88/134/2 85/130/2
f 85/131/2 88/135/2 89/136/2 86/132/2
f 91/138/4 92/140/4 90/137/4 93/141/4
f 94/142/4 95/144/4 91/139/4 96/145/4
f 97/147/4 94/143/4 96/146/4 98/148/4
f 99/149/3 100/150/3 102/152/3 101/151/3
f 103/153/3 104/154/3 106/157/3 105/155/3
f 105/156/3 106/158/3 108/161/3 107/159/3
f 107/160/3 108/162/3 110/165/3 109/163/3
f 109/164/3 110/166/3 115/173/3 114/171/3
f 111/167/2 116/175/2 117/177/2 112/168/2
f 112/169/2 117/178/2 118/181/2 113/170/2
f 114/172/3 115/174/3 120/185/3 119/183/3
f 116/176/2 121/187/2 122/188/2 117/179/2
f 117/180/2 122/189/2 123/191/2 118/182/2
f 119/184/3 120/186/3 125/195/3 124/193/3
f 122/190/2 127/198/2 128/201/2 123/192/2
f 124/194/3 125/196/3 130/205/3 129/203/3
f 126/197/2 131/207/2 132/208/2 127/199/2
f 127/200/2 132/209/2 133/211/2 128/202/2
f 129/204/3 130/206/3 136/216/3 135/214/3
f 132/210/2 137/217/2 138/219/2 133/212/2
f 134/213/3 135/215/3 141/225/3 140/223/3
f 137/218/2 142/227/2 143/228/2 138/220/2
f 138/221/2 143/229/2 144/231/2 139/222/2
f 140/224/3 141/226/3 146/235/3 145/233/3
f 143/230/2 147/237/2 148/239/2 144/232/2
f 145/234/3 146/236/3 150/243/3 149/241/3
f 147/238/2 152/246/2 153/249/2 148/240/2
f 149/242/3 150/244/3 155/253/3 154/251/3
f 151/245/2 156/255/2 157/257/2 152/247/2
f 152/248/2 157/258/2 158/261/2 153/250/2
f 154/252/3 155/254/3 160/265/3 159/263/3
f 156/256/2 161/267/2 162/268/2 157/259/2
f 157/260/2 162/269/2 163/271/2 158/262/2
f 159/264/3 160/266/3 165/275/3 164/273/3
f 162/270/2 167/278/2 168/280/2 163/272/2
f 164/274/3 165/276/3 170/283/3 169/281/3
f 166/277/2 172/286/2 173/289/2 167/279/2
f 169/282/3 170/284/3 175/293/3 174/291/3
f 171/285/2 176/295/2 177/296/2 172/287/2
f 172/288/2 177/297/2 178/298/2 173/290/2
f 174/292/3 175/294/3 180/301/3 179/299/3
f 179/300/3 180/302/3 182/305/3 181/303/3
f 181/304/3 182/306/3 184/309/3 183/307/3
f 183/308/3 184/310/3 187/315/3 185/311/3
f 186/313/4 185/312/4 187/316/4 188/317/4
f 189/319/4 186/314/4 188/318/4 190/321/4
f 191/323/4 189/320/4 190/322/4 192/325/4
f 193/327/4 191/324/4 192/326/4 194/329/4
f 195/331/4 193/328/4 194/330/4 196/333/4
f 197/335/4 195/332/4 196/334/4 198/337/4
f 199/339/4 197/336/4 198/338/4 200/341/4
f 201/343/4 199/340/4 200/342/4 202/345/4
f 203/347/4 201/344/4 202/346/4 204/349/4
f 205/351/4 203/348/4 204/350/4 206/353/4
f 207/355/4 205/352/4 206/354/4 208/357/4
f 209/359/4 207/356/4 208/358/4 210/361/4
f 211/363/4 209/360/4 210/362/4 212/364/4
f 214/367/4 212/365/4 213/366/4 215/369/4
f 216/371/4 214/368/4 215/370/4 217/373/4
f 218/375/4 216/372/4 217/374/4 219/377/4
f 220/379/4 218/376/4 219/378/4 221/381/4
f 222/383/4 220/380/4 221/382/4 223/385/4
f 224/387/4 222/384/4 223/386/4 225/389/4
f 226/391/4 224/388/4 225/390/4 227/393/4
f 228/395/4 226/392/4 227/394/4 229/397/4
f 231/400/4 228/396/4 229/398/4 232/403/4
f 233/405/4 230/399/4 231/401/4 234/406/4
f 234/407/4 231/402/4 232/404/4 235/409/4
f 236/411/4 234/408/4 235/410/4 237/413/4
f 238/415/4 236/412/4 237/414/4 239/416/4
