# Blender 3.3.1
# www.blender.org
mtllib Granite_2.mtl
o Granite_2
v 17.000000 -0.000000 1.000000
v 17.000000 2.000000 1.000000
v 17.000000 -0.000000 3.000000
v 17.000000 2.000000 3.000000
v 17.000000 -0.000001 5.000000
v 17.000000 1.999999 5.000000
vn 1.0000 -0.0000 -0.0000
vt 1.000000 0.000000
vt 1.000000 1.000000
vt 1.000000 0.000000
vt 0.000000 0.000000
vt 1.000000 1.000000
vt 0.000000 1.000000
vt 0.000000 0.000000
vt 0.000000 1.000000
s 0
usemtl granite
f 3/3/1 4/5/1 6/8/1 5/7/1
f 1/1/1 2/2/1 4/6/1 3/4/1
