# Blender 3.3.1
# www.blender.org
mtllib Granite.mtl
o Granite
v 17.000000 -0.000001 5.000000
v 17.000000 0.999999 5.000000
v 17.000000 1.999999 5.000000
v 17.000000 -0.000001 6.000000
v 17.000000 0.999999 6.000000
v 17.000000 1.999999 6.000000
v 17.000000 -0.000001 7.000000
v 17.000000 0.999999 7.000000
v 17.000000 -0.000001 8.000000
v 17.000000 0.999999 8.000000
vn 1.0000 -0.0000 -0.0000
vt 1.000000 0.000000
vt 1.000000 1.000000
vt 1.000000 0.000000
vt 1.000000 1.000000
vt 0.000000 0.000000
vt 1.000000 0.000000
vt 0.000000 1.000000
vt 0.000000 0.000000
vt 1.000000 1.000000
vt 0.000000 1.000000
vt 0.000000 0.000000
vt 1.000000 0.000000
vt 0.000000 1.000000
vt 1.000000 1.000000
vt 0.000000 0.000000
vt 0.000000 1.000000
s 0
usemtl granite
f 4/5/1 1/1/1 2/2/1 5/7/1
f 5/8/1 2/3/1 3/4/1 6/10/1
f 7/11/1 4/6/1 5/9/1 8/13/1
f 9/15/1 7/12/1 8/14/1 10/16/1
