# Blender 3.3.1
# www.blender.org
mtllib Grass_Block_Top_Y_3.mtl
o Grass_Block_Top_Y_3
v -17.000000 9.000002 -9.999998
v -17.000000 9.000001 -6.999999
v -17.000000 8.999998 11.000002
v -17.000000 8.999998 14.000002
v -15.000000 8.000000 1.000001
v -15.000000 8.000000 4.000001
v -15.000000 7.999999 7.000001
v -15.000000 7.999999 10.000001
v -14.000000 9.000002 -9.999998
v -14.000000 9.000001 -6.999999
v -14.000000 8.999998 11.000002
v -14.000000 8.999998 14.000002
v -12.000000 7.000000 1.000001
v -12.000000 8.000000 1.000001
v -12.000000 7.000000 4.000001
v -12.000000 8.000000 4.000001
v -12.000000 7.999999 7.000001
v -12.000000 7.999999 10.000001
v -12.000000 6.999998 13.000001
v -12.000000 6.999998 16.000002
v -11.000000 6.000000 -1.999999
v -11.000000 6.000000 1.000001
v -9.000000 7.000000 1.000001
v -9.000000 7.000000 4.000001
v -9.000000 6.999998 13.000001
v -9.000000 6.999998 16.000002
v -8.000000 6.000000 -1.999999
v -8.000000 6.000000 1.000001
v -8.000000 6.999999 5.000001
v -8.000000 6.999999 8.000001
v -7.000000 5.999999 9.000001
v -7.000000 5.999998 12.000001
v -5.000000 6.999999 5.000001
v -5.000000 6.999999 8.000001
v -4.000000 4.000001 -9.999999
v -4.000000 4.000001 -7.000000
v -4.000000 5.999999 9.000001
v -4.000000 5.999998 12.000001
v -2.000000 4.000001 -5.000000
v -2.000000 4.000000 -1.999999
v -1.000000 4.000001 -9.999999
v -1.000000 4.000001 -7.000000
v 1.000000 3.000001 -6.000000
v 1.000000 4.000001 -5.000000
v 1.000000 3.000000 -3.000000
v 1.000000 4.000000 -1.999999
v 3.000000 3.000002 -10.999999
v 3.000000 3.000001 -8.000000
v 4.000000 3.000001 -6.000000
v 4.000000 3.000000 -3.000000
v 4.000000 4.000000 2.000001
v 4.000000 3.999999 5.000000
v 5.000000 3.999999 8.000001
v 5.000000 3.999998 11.000001
v 6.000000 3.000002 -10.999999
v 6.000000 3.000001 -8.000000
v 6.000000 3.000001 -5.000000
v 7.000000 4.000000 2.000001
v 7.000000 3.999999 5.000000
v 8.000000 3.999999 8.000001
v 8.000000 3.999998 11.000001
v 9.000000 3.000002 -10.999999
v 9.000000 3.000001 -8.000000
v 9.000000 3.000001 -5.000000
v 9.000000 5.999998 15.000001
v 10.000000 3.999999 5.000000
v 10.000000 3.999999 8.000001
v 9.000000 5.999998 12.000001
v 12.000000 5.999998 12.000001
v 12.000000 5.999998 15.000001
v 13.000000 3.999999 5.000000
v 13.000000 3.999999 8.000001
v 13.000000 4.999999 9.000001
v 13.000000 4.999998 12.000001
v 16.000000 4.999999 9.000001
v 16.000000 4.999998 12.000001
v 6.000000 3.999999 5.000000
v 6.000000 3.999999 8.000001
v 9.000000 3.999999 5.000000
v 9.000000 3.999999 8.000001
vn -0.0000 1.0000 -0.0000
vt 1.000000 0.000000
vt 0.000000 0.000000
vt 1.000000 0.000000
vt 0.000000 1.000000
vt 0.000000 0.000000
vt 1.000000 1.000000
vt 0.000000 1.000000
vt 0.000000 1.000000
vt 1.000000 0.000000
vt 0.000000 0.000000
vt 0.000000 0.000000
vt 0.000000 0.000000
vt 1.000000 0.000000
vt 0.000000 0.000000
vt 0.000000 0.000000
vt 0.000000 0.000000
vt 1.000000 1.000000
vt 1.000000 1.000000
vt 0.000000 1.000000
vt 1.000000 0.000000
vt 1.000000 1.000000
vt 0.000000 0.000000
vt 0.000000 1.000000
vt 0.000000 0.000000
vt 0.000000 0.000000
vt 0.000000 1.000000
vt 0.000000 0.000000
vt 0.000000 0.000000
vt 0.000000 1.000000
vt 0.000000 0.000000
vt 1.000000 1.000000
vt 1.000000 1.000000
vt 1.000000 0.000000
vt 0.000000 0.000000
vt 0.000000 0.000000
vt 0.000000 1.000000
vt 0.000000 1.000000
vt 1.000000 1.000000
vt 0.000000 0.000000
vt 1.000000 0.000000
vt 1.000000 1.000000
vt 0.000000 0.000000
vt 0.000000 1.000000
vt 0.000000 1.000000
vt 0.000000 0.000000
vt 1.000000 0.000000
vt 1.000000 1.000000
vt 1.000000 0.000000
vt 0.000000 1.000000
vt 0.000000 0.000000
vt 1.000000 1.000000
vt 1.000000 1.000000
vt 1.000000 1.000000
vt 0.000000 1.000000
vt 0.000000 1.000000
vt 1.000000 0.000000
vt 1.000000 1.000000
vt 1.000000 0.000000
vt 1.000000 0.000000
vt 0.000000 0.000000
vt 1.000000 0.000000
vt 0.000000 1.000000
vt 0.000000 0.000000
vt 0.000000 0.000000
vt 1.000000 0.000000
vt 0.000000 0.000000
vt 1.000000 0.000000
vt 0.000000 1.000000
vt 0.000000 0.000000
vt 1.000000 1.000000
vt 1.000000 0.000000
vt 1.000000 0.000000
vt 0.000000 0.000000
vt 1.000000 1.000000
vt 0.000000 1.000000
vt 0.000000 1.000000
vt 0.000000 1.000000
vt 1.000000 0.000000
vt 1.000000 1.000000
vt 0.000000 1.000000
vt 1.000000 0.000000
vt 0.000000 1.000000
vt 1.000000 0.000000
vt 0.000000 1.000000
vt 1.000000 1.000000
vt 0.000000 0.000000
s 0
usemtl grass_block_top
f 2/2/1 10/12/1 9/11/1 1/1/1
f 11/13/1 3/3/1 4/4/1 12/14/1
f 17/20/1 16/18/1 6/6/1 7/8/1
f 18/22/1 17/21/1 7/9/1 8/10/1
f 14/16/1 5/5/1 6/7/1 16/19/1
f 21/25/1 22/26/1 28/32/1 27/31/1
f 26/30/1 25/29/1 19/23/1 20/24/1
f 33/37/1 29/33/1 30/34/1 34/38/1
f 38/42/1 37/41/1 31/35/1 32/36/1
f 24/28/1 23/27/1 13/15/1 15/17/1
f 42/46/1 41/45/1 35/39/1 36/40/1
f 52/56/1 59/64/1 58/63/1 51/55/1
f 61/66/1 60/65/1 53/57/1 54/58/1
f 50/54/1 49/53/1 43/47/1 45/49/1
f 40/44/1 46/50/1 44/48/1 39/43/1
f 70/76/1 69/75/1 68/74/1 65/71/1
f 62/67/1 55/59/1 56/60/1 63/68/1
f 64/70/1 63/69/1 56/60/1 57/62/1
f 55/59/1 47/51/1 48/52/1 56/61/1
f 73/79/1 74/80/1 76/82/1 75/81/1
f 71/77/1 66/72/1 67/73/1 72/78/1
f 79/85/1 77/83/1 78/84/1 80/86/1
