# Blender v3.2.0 OBJ File: ''
# www.blender.org
o grass_side_Plane
v -4.000000 2.000000 4.000000
v -3.000000 2.000000 4.000000
v -2.000000 2.000000 4.000000
v -4.000000 2.000000 -1.000000
v -4.000000 2.000000 0.000000
v -4.000000 2.000000 1.000000
v -4.000000 2.000000 2.000000
v -4.000000 2.000000 3.000000
v 4.000000 2.000000 2.000000
v 4.000000 2.000000 1.000000
v 4.000000 2.000000 0.000000
v 4.000000 2.000000 -1.000000
v 4.000000 2.000000 -2.000000
v -3.000000 2.000000 3.000000
v -3.000000 2.000000 2.000000
v -3.000000 2.000000 1.000000
v -4.000000 4.000000 -1.000000
v -4.000000 4.000000 -2.000000
v -4.000000 4.000000 -3.000000
v -2.000000 2.000000 3.000000
v -2.000000 2.000000 1.000000
v -2.000000 2.000000 0.000000
v 1.000000 4.000000 -3.000000
v 0.000000 4.000000 -3.000000
v -1.000000 2.000000 0.000000
v -1.000000 2.000000 -1.000000
v -1.000000 4.000000 -3.000000
v 0.000000 2.000000 0.000000
v 0.000000 2.000000 -1.000000
v -2.000000 4.000000 -4.000000
v 1.000000 2.000000 0.000000
v -1.000000 4.000000 -4.000000
v 0.000000 4.000000 -4.000000
v 1.000000 4.000000 -4.000000
v 2.000000 2.000000 0.000000
v 2.000000 4.000000 -4.000000
v 3.000000 4.000000 -4.000000
v -4.000000 4.000000 -4.000000
v 3.000000 2.000000 2.000000
v 3.000000 2.000000 1.000000
v 3.000000 2.000000 0.000000
v -3.000000 4.000000 -4.000000
v 4.000000 4.000000 -4.000000
v 4.000000 4.000000 -3.000000
v 4.000000 3.000000 -3.000000
v 4.000000 3.000000 -4.000000
v -3.000000 3.000000 -4.000000
v -4.000000 3.000000 -4.000000
v 3.000000 3.000000 -4.000000
v 2.000000 3.000000 -4.000000
v 1.000000 3.000000 -4.000000
v 0.000000 3.000000 -4.000000
v -1.000000 3.000000 -4.000000
v -2.000000 3.000000 -4.000000
v -2.000000 3.000000 4.000000
v -3.000000 3.000000 4.000000
v -1.000000 3.000000 -3.000000
v 0.000000 3.000000 -3.000000
v 1.000000 3.000000 -3.000000
v -4.000000 3.000000 4.000000
v -4.000000 3.000000 3.000000
v -4.000000 3.000000 -3.000000
v -4.000000 3.000000 -2.000000
v -4.000000 3.000000 -1.000000
v -4.000000 3.000000 0.000000
v -4.000000 3.000000 1.000000
v 4.000000 3.000000 2.000000
v 4.000000 3.000000 1.000000
v 4.000000 3.000000 0.000000
v 4.000000 3.000000 -1.000000
v 4.000000 3.000000 -2.000000
v -3.000000 3.000000 1.000000
v -3.000000 3.000000 -1.000000
v -3.000000 3.000000 -2.000000
v -2.000000 3.000000 1.000000
v -2.000000 3.000000 0.000000
v -2.000000 3.000000 -2.000000
v -1.000000 3.000000 0.000000
v -1.000000 3.000000 -1.000000
v -1.000000 3.000000 -2.000000
v 0.000000 3.000000 0.000000
v 0.000000 3.000000 -1.000000
v 1.000000 3.000000 0.000000
v 1.000000 3.000000 -2.000000
v 2.000000 3.000000 0.000000
v 2.000000 3.000000 -2.000000
v 3.000000 3.000000 2.000000
v 3.000000 3.000000 1.000000
v 3.000000 3.000000 0.000000
v 3.000000 3.000000 -2.000000
v 4.000000 4.000000 -2.000000
v -3.000000 4.000000 -1.000000
v -3.000000 4.000000 -2.000000
v -2.000000 4.000000 -2.000000
v -1.000000 4.000000 -2.000000
v 1.000000 4.000000 -2.000000
v 2.000000 4.000000 -2.000000
v 3.000000 4.000000 -2.000000
v -4.000000 3.000000 2.000000
v -3.000000 3.000000 3.000000
v -3.000000 3.000000 2.000000
v -2.000000 3.000000 3.000000
vn 1.0000 0.0000 0.0000
vn 0.0000 0.0000 1.0000
vn -1.0000 0.0000 0.0000
vn 0.0000 0.0000 -1.0000
s off
f 12//1 13//1 71//1 70//1
f 11//1 12//1 70//1 69//1
f 21//1 22//1 76//1 75//1
f 10//1 11//1 69//1 68//1
f 9//1 10//1 68//1 67//1
f 26//2 29//2 82//2 79//2
f 16//2 21//2 75//2 72//2
f 31//2 35//2 85//2 83//2
f 39//2 9//2 67//2 87//2
f 41//3 40//3 88//3 89//3
f 25//1 26//1 79//1 78//1
f 40//3 39//3 87//3 88//3
f 5//3 6//3 66//3 65//3
f 4//3 5//3 65//3 64//3
f 3//1 20//1 102//1 55//1
f 20//4 14//4 100//4 102//4
f 1//2 2//2 56//2 60//2
f 22//2 25//2 78//2 76//2
f 6//2 16//2 72//2 66//2
f 28//2 31//2 83//2 81//2
f 35//2 41//2 89//2 85//2
f 29//3 28//3 81//3 82//3
f 59//3 84//3 96//3 23//3
f 50//4 51//4 34//4 36//4
f 63//3 64//3 17//3 18//3
f 49//4 50//4 36//4 37//4
f 64//2 73//2 92//2 17//2
f 71//1 45//1 44//1 91//1
f 58//2 59//2 23//2 24//2
f 90//2 71//2 91//2 98//2
f 62//3 63//3 18//3 19//3
f 46//4 49//4 37//4 43//4
f 77//2 80//2 95//2 94//2
f 48//3 62//3 19//3 38//3
f 86//2 90//2 98//2 97//2
f 47//4 48//4 38//4 42//4
f 54//4 47//4 42//4 30//4
f 51//4 52//4 33//4 34//4
f 84//2 86//2 97//2 96//2
f 57//2 58//2 24//2 27//2
f 73//1 74//1 93//1 92//1
f 52//4 53//4 32//4 33//4
f 74//2 77//2 94//2 93//2
f 80//1 57//1 27//1 95//1
f 53//4 54//4 30//4 32//4
f 45//1 46//1 43//1 44//1
f 8//3 1//3 60//3 61//3
f 7//3 8//3 61//3 99//3
f 14//1 15//1 101//1 100//1
f 2//2 3//2 55//2 56//2
f 15//4 7//4 99//4 101//4
