# Blender 3.3.1
# www.blender.org
mtllib Grass_Block_Top_Y_2.mtl
o Grass_Block_Top_Y_2
v -17.000000 10.000002 -12.999998
v -16.000000 10.000002 -12.999998
v -17.000000 10.000002 -11.999998
v -17.000000 10.000002 -10.999998
v -16.000000 10.000002 -10.999998
v -17.000000 9.000000 0.000001
v -16.000000 9.000000 0.000001
v -17.000000 9.000000 1.000001
v -17.000000 9.000000 2.000001
v -16.000000 9.000000 2.000001
v -17.000000 8.999998 9.000002
v -16.000000 8.999998 9.000002
v -17.000000 8.999998 11.000002
v -15.000000 9.000003 -14.999998
v -15.000000 9.000002 -13.999998
v -15.000000 9.000002 -12.999998
v -15.000000 10.000002 -12.999998
v -15.000000 10.000002 -11.999998
v -15.000000 10.000002 -10.999998
v -15.000000 8.000001 -5.999999
v -15.000000 8.000001 -6.999999
v -15.000000 8.000001 -4.999999
v -15.000000 7.000000 -3.999999
v -15.000000 7.000001 -4.999999
v -15.000000 7.000000 -2.999999
v -15.000000 8.000000 -0.999999
v -15.000000 8.000000 0.000001
v -15.000000 9.000000 0.000001
v -15.000000 8.000000 1.000001
v -15.000000 9.000000 1.000001
v -15.000000 9.000000 2.000001
v -15.000000 8.999998 9.000002
v -15.000000 8.999998 10.000002
v -15.000000 8.999998 11.000002
v -15.000000 7.999998 15.000001
v -15.000000 7.999998 14.000001
v -15.000000 7.999998 16.000002
v -14.000000 9.000003 -14.999998
v -14.000000 9.000002 -12.999998
v -14.000000 9.000002 -11.999998
v -14.000000 9.000002 -10.999998
v -14.000000 8.000001 -6.999999
v -14.000000 8.000001 -4.999999
v -14.000000 7.000001 -4.999999
v -14.000000 7.000000 -2.999999
v -14.000000 7.000000 -1.999999
v -14.000000 7.000000 -0.999999
v -14.000000 8.000000 -0.999999
v -14.000000 7.999999 10.000001
v -14.000000 7.999998 11.000001
v -14.000000 7.999998 12.000001
v -14.000000 7.999998 13.000001
v -14.000000 7.999998 14.000001
v -14.000000 7.999998 16.000002
v -13.000000 9.000003 -14.999998
v -13.000000 9.000002 -13.999998
v -13.000000 9.000002 -12.999998
v -13.000000 8.000001 -6.999999
v -13.000000 8.000001 -4.999999
v -13.000000 7.000001 -4.999999
v -13.000000 7.000000 -3.999999
v -13.000000 7.000000 -2.999999
v -13.000000 7.000000 -0.999999
v -13.000000 8.000000 -0.999999
v -13.000000 8.000000 0.000001
v -13.000000 8.000000 1.000001
v -13.000000 7.999998 14.000001
v -13.000000 7.999998 15.000001
v -13.000000 7.999998 16.000002
v -12.000000 9.000002 -12.999998
v -12.000000 9.000002 -10.999998
v -12.000000 8.000001 -6.999999
v -12.000000 8.000001 -4.999999
v -12.000000 7.000000 -2.999999
v -12.000000 7.000000 -1.999999
v -12.000000 7.000000 -0.999999
v -12.000000 7.999999 10.000001
v -12.000000 7.999998 11.000001
v -12.000000 7.999998 12.000001
v -12.000000 7.999998 13.000001
v -12.000000 7.999998 14.000001
v -11.000000 9.000002 -12.999998
v -11.000000 8.000001 -6.999999
v -11.000000 8.000001 -5.999999
v -11.000000 8.000001 -4.999999
v -11.000000 6.000000 -3.999999
v -11.000000 6.000000 -2.999999
v -11.000000 6.000000 -1.999999
v -10.000000 9.000002 -12.999998
v -10.000000 9.000002 -11.999998
v -10.000000 9.000002 -10.999998
v -10.000000 6.000000 -3.999999
v -9.000000 6.000000 -3.999999
v -9.000000 6.000000 -2.999999
v -9.000000 6.000000 -1.999999
v -9.000000 7.000000 2.000001
v -9.000000 7.000000 4.000001
v -8.000000 6.000000 0.000001
v -8.000000 6.000000 1.000001
v -8.000000 6.000000 2.000001
v -8.000000 7.000000 2.000001
v -8.000000 7.000000 4.000001
v -7.000000 6.000000 0.000001
v -7.000000 6.000000 2.000001
v -7.000000 7.000000 2.000001
v -7.000000 7.000000 3.000001
v -7.000000 7.000000 4.000001
v -6.000000 5.000000 -1.999999
v -6.000000 5.000000 -0.999999
v -6.000000 5.000000 0.000001
v -6.000000 6.000000 0.000001
v -6.000000 6.000000 1.000001
v -6.000000 6.000000 2.000001
v -6.000000 6.000000 3.000001
v -5.000000 5.000000 -1.999999
v -5.000000 5.000000 0.000001
v -5.000000 6.000000 1.000001
v -5.000000 6.000000 3.000001
v -4.000000 5.000000 -1.999999
v -4.000000 5.000000 0.000001
v -4.000000 6.000000 1.000001
v -4.000000 6.000000 2.000001
v -4.000000 6.000000 3.000001
v -4.000000 6.000000 4.000001
v -3.000000 5.000000 -1.999999
v -3.000000 5.000000 0.000001
v -3.000000 5.000000 1.000001
v -3.000000 5.000000 2.000001
v -3.000000 6.000000 2.000001
v -2.000000 5.000000 -1.999999
v -2.000000 5.000000 -0.999999
v -2.000000 5.000000 0.000001
v -2.000000 5.000000 2.000001
v -2.000000 6.000000 2.000001
v -2.000000 6.000000 3.000001
v -2.000000 6.000000 4.000001
v -1.000000 5.000000 0.000001
v -1.000000 5.000000 2.000001
v -1.000000 5.000000 3.000001
v -1.000000 5.000000 4.000001
v 0.000000 4.000000 -1.999999
v 0.000000 4.000000 -0.999999
v 0.000000 4.000000 0.000001
v 0.000000 5.000000 0.000001
v 0.000000 5.000000 4.000001
v 1.000000 4.000002 -14.999999
v 1.000000 4.000002 -12.999999
v 1.000000 3.000002 -10.999999
v 1.000000 3.000002 -11.999999
v 1.000000 3.000002 -9.999999
v 1.000000 4.000000 -1.999999
v 1.000000 4.000000 0.000001
v 1.000000 5.000000 0.000001
v 1.000000 4.000000 1.000001
v 1.000000 5.000000 1.000001
v 1.000000 4.000000 2.000001
v 1.000000 5.000000 2.000001
v 1.000000 5.000000 4.000001
v 2.000000 4.000002 -14.999999
v 2.000000 4.000002 -12.999999
v 2.000000 3.000002 -11.999999
v 2.000000 4.000000 -1.999999
v 2.000000 4.000000 0.000001
v 2.000000 4.000000 2.000001
v 2.000000 5.000000 2.000001
v 3.000000 4.000002 -14.999999
v 3.000000 4.000002 -13.999999
v 3.000000 3.000002 -12.999999
v 3.000000 4.000002 -12.999999
v 3.000000 3.000002 -11.999999
v 3.000000 3.000002 -10.999999
v 3.000000 3.000002 -9.999999
v 3.000000 4.000000 -1.999999
v 3.000000 4.000000 0.000001
v 3.000000 4.000000 2.000001
v 3.000000 5.000000 2.000001
v 3.000000 5.000000 3.000001
v 3.000000 5.000000 4.000001
v 4.000000 3.000002 -12.999999
v 4.000000 4.000000 -1.999999
v 4.000000 4.000000 -0.999999
v 4.000000 4.000000 0.000001
v 4.000000 4.000000 2.000001
v 4.000000 3.999999 5.000000
v 4.000000 3.999999 6.000000
v 4.000000 3.999999 7.000000
v 4.000000 3.999998 12.000001
v 4.000000 3.999998 11.000001
v 4.000000 3.999998 13.000001
v 4.000000 4.999998 13.000001
v 4.000000 4.999998 15.000001
v 5.000000 3.000002 -12.999999
v 5.000000 3.000002 -10.999999
v 5.000000 4.000000 0.000001
v 5.000000 4.000000 2.000001
v 5.000000 3.999999 7.000000
v 5.000000 3.999998 11.000001
v 5.000000 3.999998 13.000001
v 5.000000 4.999998 13.000001
v 5.000000 4.999998 15.000001
v 6.000000 4.000000 0.000001
v 6.000000 3.999999 5.000000
v 6.000000 3.999999 7.000000
v 6.000000 3.999998 11.000001
v 6.000000 3.999998 12.000001
v 6.000000 3.999998 13.000001
v 6.000000 4.999998 13.000001
v 6.000000 4.999998 15.000001
v 7.000000 4.000000 0.000001
v 7.000000 4.000000 2.000001
v 7.000000 4.999998 12.000001
v 7.000000 4.999998 13.000001
v 7.000000 4.999998 15.000001
v 7.000000 4.999998 11.000001
v 8.000000 4.999998 11.000001
v 8.000000 4.999998 13.000001
v 8.000000 4.999998 14.000001
v 8.000000 4.999998 15.000001
v 9.000000 3.000000 -3.000000
v 9.000000 3.000000 -1.000000
v 9.000000 5.000000 3.000001
v 9.000000 5.000000 4.000001
v 9.000000 4.999999 5.000001
v 9.000000 4.999999 10.000001
v 9.000000 4.999998 11.000001
v 9.000000 4.999998 12.000001
v 9.000000 4.999998 13.000001
v 10.000000 3.000000 -1.000000
v 10.000000 5.000000 3.000001
v 10.000000 4.999999 5.000001
v 10.000000 4.999999 10.000001
v 10.000000 4.999998 12.000001
v 11.000000 3.000000 -3.000000
v 11.000000 3.000000 -1.000000
v 11.000000 5.000000 3.000001
v 11.000000 5.000000 4.000001
v 11.000000 4.999999 5.000001
v 11.000000 4.999999 10.000001
v 11.000000 4.999998 12.000001
v 12.000000 3.000000 -1.000000
v 12.000000 4.999999 10.000001
v 12.000000 4.999998 12.000001
v 13.000000 3.000000 -3.000000
v 13.000000 3.000000 -1.000000
v 13.000000 4.999999 10.000001
v 13.000000 4.999998 12.000001
v 14.000000 3.000000 -1.000000
v 15.000000 3.000000 -3.000000
v 15.000000 3.000000 -2.000000
v 15.000000 3.000000 -1.000000
v 15.000000 4.000000 -0.999999
v 15.000000 4.000000 0.000001
v 15.000000 4.000000 2.000001
v 15.000000 3.999999 4.000000
v 15.000000 4.000000 -1.999999
v 16.000000 4.000000 -1.999999
v 17.000000 4.000000 -1.999999
v 17.000000 4.000000 -0.999999
v 17.000000 4.000000 0.000001
v 17.000000 4.000000 1.000001
v 17.000000 4.000000 2.000001
v 17.000000 4.000000 3.000001
v 17.000000 3.999999 4.000000
v -8.000000 5.000000 -3.999999
v -8.000000 5.000000 -2.999999
v -8.000000 5.000000 -1.999999
v -7.000000 5.000000 -3.999999
v -7.000000 5.000000 -1.999999
v -6.000000 5.000000 -3.999999
v -6.000000 5.000000 -2.999999
v -6.000000 5.000000 -1.999999
vn -0.0000 1.0000 -0.0000
vt 0.000000 1.000000
vt 1.000000 1.000000
vt 0.000000 0.000000
vt 1.000000 0.000000
vt 0.000000 0.000000
vt 0.000000 0.000000
vt 0.000000 1.000000
vt 0.000000 1.000000
vt 0.000000 0.000000
vt 1.000000 1.000000
vt 0.000000 1.000000
vt 1.000000 1.000000
vt 0.000000 1.000000
vt 0.000000 0.000000
vt 0.000000 1.000000
vt 0.000000 0.000000
vt 0.000000 1.000000
vt 1.000000 1.000000
vt 1.000000 0.000000
vt 0.000000 0.000000
vt 0.000000 0.000000
vt 1.000000 0.000000
vt 0.000000 1.000000
vt 1.000000 1.000000
vt 0.000000 0.000000
vt 0.000000 1.000000
vt 1.000000 1.000000
vt 0.000000 1.000000
vt 0.000000 1.000000
vt 1.000000 1.000000
vt 0.000000 1.000000
vt 0.000000 1.000000
vt 1.000000 1.000000
vt 1.000000 1.000000
vt 0.000000 0.000000
vt 1.000000 1.000000
vt 1.000000 0.000000
vt 0.000000 1.000000
vt 0.000000 0.000000
vt 0.000000 1.000000
vt 0.000000 0.000000
vt 1.000000 0.000000
vt 0.000000 1.000000
vt 1.000000 0.000000
vt 1.000000 0.000000
vt 1.000000 0.000000
vt 0.000000 1.000000
vt 0.000000 0.000000
vt 1.000000 0.000000
vt 1.000000 1.000000
vt 0.000000 1.000000
vt 1.000000 1.000000
vt 0.000000 1.000000
vt 0.000000 0.000000
vt 1.000000 1.000000
vt 0.000000 1.000000
vt 1.000000 0.000000
vt 0.000000 1.000000
vt 1.000000 1.000000
vt 1.000000 0.000000
vt 0.000000 1.000000
vt 0.000000 0.000000
vt 1.000000 1.000000
vt 1.000000 1.000000
vt 0.000000 0.000000
vt 1.000000 0.000000
vt 0.000000 0.000000
vt 0.000000 0.000000
vt 1.000000 0.000000
vt 0.000000 0.000000
vt 0.000000 1.000000
vt 0.000000 1.000000
vt 0.000000 0.000000
vt 1.000000 1.000000
vt 1.000000 0.000000
vt 0.000000 0.000000
vt 0.000000 1.000000
vt 1.000000 1.000000
vt 1.000000 0.000000
vt 1.000000 0.000000
vt 1.000000 0.000000
vt 1.000000 1.000000
vt 1.000000 0.000000
vt 1.000000 1.000000
vt 0.000000 0.000000
vt 0.000000 1.000000
vt 0.000000 1.000000
vt 1.000000 1.000000
vt 1.000000 0.000000
vt 1.000000 0.000000
vt 1.000000 0.000000
vt 1.000000 0.000000
vt 0.000000 0.000000
vt 1.000000 1.000000
vt 1.000000 0.000000
vt 0.000000 0.000000
vt 1.000000 0.000000
vt 0.000000 0.000000
vt 0.000000 1.000000
vt 0.000000 0.000000
vt 0.000000 0.000000
vt 1.000000 0.000000
vt 0.000000 0.000000
vt 1.000000 1.000000
vt 1.000000 1.000000
vt 1.000000 0.000000
vt 0.000000 1.000000
vt 1.000000 0.000000
vt 1.000000 1.000000
vt 1.000000 0.000000
vt 0.000000 0.000000
vt 1.000000 1.000000
vt 0.000000 1.000000
vt 0.000000 1.000000
vt 1.000000 1.000000
vt 1.000000 0.000000
vt 0.000000 0.000000
vt 0.000000 0.000000
vt 1.000000 0.000000
vt 0.000000 0.000000
vt 0.000000 1.000000
vt 0.000000 0.000000
vt 1.000000 0.000000
vt 0.000000 1.000000
vt 0.000000 0.000000
vt 1.000000 1.000000
vt 0.000000 1.000000
vt 1.000000 0.000000
vt 0.000000 0.000000
vt 1.000000 0.000000
vt 0.000000 1.000000
vt 0.000000 1.000000
vt 1.000000 1.000000
vt 0.000000 0.000000
vt 1.000000 0.000000
vt 1.000000 1.000000
vt 0.000000 1.000000
vt 1.000000 1.000000
vt 1.000000 0.000000
vt 1.000000 0.000000
vt 1.000000 1.000000
vt 1.000000 0.000000
vt 0.000000 0.000000
vt 0.000000 1.000000
vt 0.000000 1.000000
vt 0.000000 0.000000
vt 1.000000 1.000000
vt 0.000000 0.000000
vt 0.000000 1.000000
vt 0.000000 0.000000
vt 0.000000 1.000000
vt 1.000000 1.000000
vt 0.000000 1.000000
vt 1.000000 1.000000
vt 1.000000 1.000000
vt 0.000000 1.000000
vt 1.000000 0.000000
vt 1.000000 1.000000
vt 0.000000 1.000000
vt 1.000000 0.000000
vt 0.000000 0.000000
vt 0.000000 0.000000
vt 0.000000 1.000000
vt 1.000000 1.000000
vt 0.000000 1.000000
vt 0.000000 1.000000
vt 0.000000 0.000000
vt 0.000000 0.000000
vt 1.000000 1.000000
vt 0.000000 0.000000
vt 1.000000 1.000000
vt 0.000000 1.000000
vt 0.000000 1.000000
vt 0.000000 0.000000
vt 1.000000 0.000000
vt 1.000000 0.000000
vt 0.000000 0.000000
vt 0.000000 1.000000
vt 0.000000 0.000000
vt 1.000000 1.000000
vt 1.000000 1.000000
vt 0.000000 1.000000
vt 1.000000 0.000000
vt 0.000000 0.000000
vt 0.000000 0.000000
vt 1.000000 1.000000
vt 1.000000 0.000000
vt 1.000000 0.000000
vt 1.000000 0.000000
vt 0.000000 0.000000
vt 1.000000 0.000000
vt 1.000000 0.000000
vt 0.000000 0.000000
vt 0.000000 1.000000
vt 1.000000 1.000000
vt 0.000000 0.000000
vt 0.000000 1.000000
vt 1.000000 0.000000
vt 1.000000 0.000000
vt 0.000000 0.000000
vt 0.000000 1.000000
vt 0.000000 0.000000
vt 1.000000 1.000000
vt 1.000000 0.000000
vt 0.000000 1.000000
vt 0.000000 0.000000
vt 1.000000 0.000000
vt 0.000000 0.000000
vt 0.000000 1.000000
vt 0.000000 0.000000
vt 0.000000 1.000000
vt 0.000000 1.000000
vt 0.000000 0.000000
vt 0.000000 0.000000
vt 1.000000 0.000000
vt 0.000000 0.000000
vt 0.000000 1.000000
vt 1.000000 1.000000
vt 0.000000 0.000000
vt 1.000000 1.000000
vt 1.000000 0.000000
vt 0.000000 1.000000
vt 1.000000 1.000000
vt 1.000000 0.000000
vt 0.000000 1.000000
vt 1.000000 1.000000
vt 0.000000 1.000000
vt 1.000000 0.000000
vt 0.000000 0.000000
vt 1.000000 1.000000
vt 1.000000 0.000000
vt 1.000000 1.000000
vt 0.000000 1.000000
vt 1.000000 0.000000
vt 1.000000 1.000000
vt 0.000000 1.000000
vt 0.000000 0.000000
vt 1.000000 0.000000
vt 1.000000 1.000000
vt 0.000000 1.000000
vt 1.000000 1.000000
vt 1.000000 0.000000
vt 1.000000 0.000000
vt 0.000000 0.000000
vt 0.000000 1.000000
vt 1.000000 0.000000
vt 0.000000 0.000000
vt 1.000000 1.000000
vt 0.000000 0.000000
vt 0.000000 1.000000
vt 1.000000 0.000000
vt 0.000000 1.000000
vt 0.000000 0.000000
vt 1.000000 1.000000
vt 1.000000 0.000000
vt 0.000000 1.000000
vt 0.000000 0.000000
vt 0.000000 0.000000
vt 1.000000 0.000000
vt 0.000000 0.000000
vt 0.000000 0.000000
vt 1.000000 0.000000
vt 0.000000 1.000000
vt 1.000000 0.000000
vt 0.000000 0.000000
vt 0.000000 0.000000
vt 1.000000 1.000000
vt 1.000000 0.000000
vt 0.000000 0.000000
vt 1.000000 0.000000
vt 0.000000 1.000000
vt 0.000000 0.000000
vt 1.000000 1.000000
vt 0.000000 0.000000
vt 1.000000 1.000000
vt 0.000000 1.000000
vt 1.000000 0.000000
vt 0.000000 0.000000
vt 1.000000 1.000000
vt 1.000000 0.000000
vt 1.000000 0.000000
vt 0.000000 0.000000
vt 1.000000 1.000000
vt 0.000000 0.000000
vt 0.000000 1.000000
vt 0.000000 1.000000
vt 1.000000 0.000000
vt 1.000000 1.000000
vt 1.000000 0.000000
vt 0.000000 0.000000
vt 1.000000 1.000000
vt 0.000000 0.000000
vt 0.000000 0.000000
vt 0.000000 1.000000
vt 1.000000 0.000000
vt 0.000000 0.000000
vt 1.000000 1.000000
vt 1.000000 0.000000
vt 0.000000 1.000000
vt 1.000000 0.000000
vt 0.000000 0.000000
vt 1.000000 0.000000
vt 1.000000 0.000000
vt 0.000000 0.000000
vt 1.000000 0.000000
vt 0.000000 0.000000
vt 1.000000 1.000000
vt 0.000000 0.000000
vt 0.000000 1.000000
vt 0.000000 1.000000
s 0
usemtl grass_block_top
f 18/18/1 17/17/1 2/2/1 1/1/1 3/3/1 4/4/1 5/5/1 19/19/1
f 71/79/1 70/77/1 57/61/1 39/39/1 40/41/1 41/42/1
f 33/33/1 32/32/1 12/12/1 11/11/1 13/13/1 34/34/1
f 39/40/1 57/62/1 56/60/1 55/59/1 38/38/1 14/14/1 15/15/1 16/16/1
f 43/44/1 59/64/1 58/63/1 42/43/1 21/21/1 20/20/1 22/22/1
f 65/71/1 64/70/1 48/50/1 26/26/1 27/27/1 29/29/1 66/72/1
f 47/49/1 63/69/1 76/84/1 75/83/1 74/82/1 62/68/1 45/46/1 46/48/1
f 78/86/1 77/85/1 49/51/1 50/52/1 51/53/1 79/87/1
f 30/30/1 28/28/1 7/7/1 6/6/1 8/8/1 9/9/1 10/10/1 31/31/1
f 73/81/1 85/94/1 84/93/1 83/92/1 72/80/1 58/63/1 59/65/1
f 25/25/1 45/47/1 62/68/1 61/67/1 60/66/1 44/45/1 24/24/1 23/23/1
f 53/56/1 67/73/1 81/90/1 80/89/1 79/88/1 51/54/1 52/55/1
f 37/37/1 54/58/1 69/76/1 68/75/1 67/74/1 53/57/1 36/36/1 35/35/1
f 90/99/1 89/98/1 82/91/1 70/78/1 71/79/1 91/100/1
f 97/106/1 102/111/1 107/116/1 106/115/1 105/114/1 101/110/1 96/105/1
f 88/97/1 95/104/1 94/103/1 93/102/1 92/101/1 86/95/1 87/96/1
f 100/109/1 104/113/1 113/122/1 112/121/1 111/120/1 103/112/1 98/107/1 99/108/1
f 116/125/1 120/130/1 119/128/1 115/124/1 108/117/1 109/118/1 110/119/1
f 114/123/1 118/127/1 123/134/1 122/133/1 121/132/1 117/126/1 112/121/1 113/122/1
f 136/150/1 135/149/1 134/148/1 129/142/1 122/133/1 123/135/1 124/136/1
f 120/131/1 126/138/1 132/145/1 131/144/1 130/143/1 125/137/1 119/129/1
f 128/141/1 133/147/1 138/153/1 137/151/1 132/146/1 126/139/1 127/140/1
f 252/288/1 259/297/1 258/296/1 257/295/1 256/294/1 255/293/1 251/287/1
f 152/168/1 163/183/1 162/181/1 151/167/1 141/157/1 142/158/1 143/159/1
f 138/154/1 157/175/1 155/172/1 153/170/1 144/160/1 137/152/1
f 140/156/1 145/161/1 158/176/1 157/174/1 138/154/1 139/155/1
f 147/163/1 160/179/1 169/189/1 167/187/1 166/186/1 159/178/1 146/162/1
f 174/196/1 163/183/1 152/169/1 154/171/1 156/173/1 164/184/1 175/198/1
f 178/201/1 177/200/1 176/199/1 165/185/1 157/175/1 158/177/1
f 253/290/1 261/299/1 260/298/1 259/297/1 252/289/1
f 171/192/1 193/217/1 192/216/1 179/202/1 168/188/1 170/190/1
f 244/279/1 247/283/1 250/286/1 249/285/1 248/284/1 243/277/1
f 183/207/1 195/220/1 194/218/1 182/205/1 174/196/1 175/198/1
f 186/210/1 196/222/1 203/229/1 202/228/1 184/208/1 185/209/1
f 189/213/1 198/224/1 206/232/1 205/231/1 204/230/1 197/223/1 188/212/1 187/211/1
f 174/197/1 182/206/1 181/204/1 180/203/1 173/195/1 162/182/1 163/183/1
f 212/240/1 216/245/1 227/258/1 226/257/1 225/255/1 215/244/1 214/243/1 211/239/1
f 150/166/1 172/194/1 171/193/1 170/191/1 161/180/1 149/165/1 148/164/1
f 208/235/1 213/242/1 218/248/1 217/247/1 216/246/1 212/241/1 207/233/1
f 200/226/1 208/236/1 207/234/1 199/225/1 190/214/1 191/215/1
f 232/263/1 239/272/1 238/271/1 231/262/1 224/254/1 225/256/1 226/257/1
f 234/266/1 240/274/1 244/280/1 243/278/1 233/264/1
f 223/253/1 230/261/1 237/270/1 236/269/1 235/268/1 229/260/1 221/251/1 222/252/1
f 209/237/1 201/227/1 194/219/1 195/221/1 210/238/1
f 242/276/1 246/282/1 245/281/1 241/275/1 238/271/1 239/273/1
f 220/250/1 228/259/1 234/267/1 233/265/1 219/249/1
f 262/301/1 261/300/1 253/291/1 254/292/1 263/302/1
f 266/305/1 268/307/1 271/310/1 270/309/1 269/308/1 267/306/1 264/303/1 265/304/1
