# Blender 3.3.1
# www.blender.org
mtllib Grass_Block_Top_Y_2.mtl
o Grass_Block_Top_Y_2
v -17.000000 10.000002 -12.999998
v -17.000000 10.000002 -10.999998
v -17.000000 9.000000 0.000001
v -17.000000 9.000000 2.000001
v -17.000000 8.999998 9.000002
v -17.000000 8.999998 11.000002
v -15.000000 10.000002 -12.999998
v -15.000000 10.000002 -10.999998
v -11.000000 8.000001 -6.999999
v -13.000000 8.000001 -6.999999
v -15.000000 8.000000 -0.999999
v -15.000000 9.000000 0.000001
v -15.000000 8.000000 1.000001
v -15.000000 9.000000 2.000001
v -15.000000 8.999998 9.000002
v -15.000000 8.999998 11.000002
v -14.000000 9.000002 -12.999998
v -14.000000 9.000002 -10.999998
v -13.000000 8.000001 -4.999999
v -13.000000 8.000001 -6.999999
v -15.000000 8.000001 -4.999999
v -14.000000 7.000000 -2.999999
v -14.000000 7.000000 -0.999999
v -14.000000 7.999999 10.000001
v -14.000000 7.999998 12.000001
v -14.000000 7.999998 14.000001
v -15.000000 8.000001 -6.999999
v -13.000000 8.000000 -0.999999
v -13.000000 8.000000 1.000001
v -12.000000 9.000002 -12.999998
v -12.000000 9.000002 -10.999998
v -12.000000 7.000000 -2.999999
v -12.000000 7.000000 -0.999999
v -12.000000 7.999999 10.000001
v -12.000000 7.999998 12.000001
v -12.000000 7.999998 14.000001
v -11.000000 6.000000 -3.999999
v -11.000000 6.000000 -1.999999
v -10.000000 9.000002 -12.999998
v -10.000000 9.000002 -10.999998
v -9.000000 6.000000 -3.999999
v -9.000000 6.000000 -1.999999
v -9.000000 7.000000 2.000001
v -9.000000 7.000000 4.000001
v -8.000000 6.000000 0.000001
v -8.000000 6.000000 2.000001
v -7.000000 7.000000 2.000001
v -7.000000 7.000000 4.000001
v -6.000000 5.000000 -1.999999
v -6.000000 5.000000 0.000001
v -6.000000 6.000000 0.000001
v -6.000000 6.000000 2.000001
v -15.000000 7.000000 -2.999999
v -15.000000 7.000001 -4.999999
v -4.000000 5.000000 -1.999999
v -4.000000 5.000000 0.000001
v -4.000000 6.000000 2.000001
v -4.000000 6.000000 4.000001
v -6.000000 6.000000 3.000001
v -3.000000 5.000000 0.000001
v -3.000000 5.000000 2.000001
v -6.000000 6.000000 1.000001
v -2.000000 6.000000 2.000001
v -2.000000 6.000000 4.000001
v -1.000000 5.000000 0.000001
v -1.000000 5.000000 2.000001
v -1.000000 5.000000 4.000001
v 1.000000 4.000000 2.000001
v 1.000000 4.000002 -14.999999
v 1.000000 4.000002 -12.999999
v 1.000000 3.000002 -11.999999
v 1.000000 3.000002 -9.999999
v 5.000000 4.000000 0.000001
v 1.000000 5.000000 0.000001
v 1.000000 5.000000 2.000001
v 1.000000 5.000000 4.000001
v 1.000000 4.000000 0.000001
v 3.000000 4.000000 2.000001
v 3.000000 4.000000 0.000001
v 3.000000 4.000002 -14.999999
v 3.000000 4.000002 -12.999999
v 3.000000 3.000002 -11.999999
v 3.000000 3.000002 -9.999999
v 0.000000 4.000000 0.000001
v 3.000000 5.000000 2.000001
v 3.000000 5.000000 4.000001
v 0.000000 4.000000 -1.999999
v -4.000000 5.000000 0.000001
v -4.000000 5.000000 -1.999999
v 4.000000 3.999999 5.000000
v 4.000000 3.999999 7.000000
v 4.000000 3.999998 11.000001
v 4.000000 3.999998 13.000001
v 4.000000 4.999998 13.000001
v 4.000000 4.999998 15.000001
v 5.000000 4.000000 0.000001
v 5.000000 4.000000 2.000001
v 6.000000 3.999999 5.000000
v 6.000000 3.999999 7.000000
v 6.000000 3.999998 11.000001
v 6.000000 3.999998 13.000001
v 6.000000 4.999998 13.000001
v 6.000000 4.999998 15.000001
v 7.000000 4.000000 0.000001
v 7.000000 4.000000 2.000001
v 4.000000 4.000000 -1.999999
v 7.000000 4.999998 11.000001
v 7.000000 4.999998 13.000001
v 2.000000 4.000000 0.000001
v 2.000000 4.000000 -1.999999
v 9.000000 3.000000 -3.000000
v 9.000000 3.000000 -1.000000
v 9.000000 5.000000 3.000001
v 9.000000 4.999999 5.000001
v 9.000000 4.999999 10.000001
v 9.000000 4.999998 12.000001
v 11.000000 3.000000 -3.000000
v 11.000000 3.000000 -1.000000
v 11.000000 5.000000 3.000001
v 11.000000 4.999999 5.000001
v 11.000000 4.999999 10.000001
v 11.000000 4.999998 12.000001
v 13.000000 3.000000 -3.000000
v 13.000000 3.000000 -1.000000
v 13.000000 4.999999 10.000001
v 13.000000 4.999998 12.000001
v 15.000000 3.000000 -3.000000
v 15.000000 3.000000 -1.000000
v 15.000000 4.000000 0.000001
v 15.000000 4.000000 2.000001
v 15.000000 3.999999 4.000000
v 15.000000 4.000000 -1.999999
v 17.000000 4.000000 -1.999999
v 17.000000 4.000000 0.000001
v 17.000000 4.000000 2.000001
v 17.000000 3.999999 4.000000
v -8.000000 5.000000 -3.999999
v -8.000000 5.000000 -1.999999
v -6.000000 5.000000 -3.999999
v -6.000000 5.000000 -1.999999
v 8.000000 4.999998 15.000001
v 8.000000 4.999998 13.000001
v 6.000000 4.999998 15.000001
v 6.000000 4.999998 13.000001
v 9.000000 4.999998 11.000001
v 9.000000 4.999998 13.000001
v 4.000000 4.000000 0.000001
v 2.000000 4.000000 -1.999999
v 2.000000 4.000000 0.000001
v 3.000000 4.000000 0.000001
v 3.000000 4.000000 2.000001
v 5.000000 4.000000 2.000001
v -2.000000 5.000000 -1.999999
v -2.000000 5.000000 0.000001
v -4.000000 6.000000 1.000001
v -4.000000 6.000000 3.000001
v -13.000000 7.000001 -4.999999
v -13.000000 7.000000 -2.999999
v -13.000000 8.000001 -4.999999
v -11.000000 8.000001 -4.999999
v -15.000000 9.000003 -14.999998
v -15.000000 9.000002 -12.999998
v -13.000000 9.000003 -14.999998
v -13.000000 9.000002 -12.999998
v 3.000000 3.000002 -12.999999
v 3.000000 3.000002 -10.999999
v 5.000000 3.000002 -12.999999
v 5.000000 3.000002 -10.999999
v -15.000000 7.999998 14.000001
v -15.000000 7.999998 16.000002
v -13.000000 7.999998 14.000001
v -13.000000 7.999998 16.000002
vn -0.0000 1.0000 -0.0000
vn -0.0000 1.0000 -0.0031
vt 0.000000 1.000000
vt 1.000000 0.000000
vt 0.000000 0.000000
vt 0.000000 0.000000
vt 0.000000 1.000000
vt 0.000000 1.000000
vt 0.000000 1.000000
vt 1.000000 0.000000
vt 1.000000 0.000000
vt 1.000000 1.000000
vt 0.000000 1.000000
vt 0.000000 1.000000
vt 0.000000 1.000000
vt 0.000000 1.000000
vt 0.000000 1.000000
vt 1.000000 1.000000
vt 0.000000 0.000000
vt 1.000000 0.000000
vt 0.000000 0.000000
vt 1.000000 1.000000
vt 1.000000 0.000000
vt 1.000000 0.000000
vt 1.000000 0.000000
vt 0.000000 1.000000
vt 0.000000 1.000000
vt 0.000000 0.000000
vt 0.000000 1.000000
vt 0.000000 0.000000
vt 0.000000 0.000000
vt 0.000000 1.000000
vt 0.000000 1.000000
vt 1.000000 1.000000
vt 1.000000 0.000000
vt 1.000000 1.000000
vt 1.000000 1.000000
vt 0.000000 0.000000
vt 0.000000 1.000000
vt 1.000000 1.000000
vt 1.000000 0.000000
vt 1.000000 0.000000
vt 1.000000 0.000000
vt 0.000000 0.000000
vt 0.000000 0.000000
vt 1.000000 0.000000
vt 1.000000 1.000000
vt 1.000000 1.000000
vt 1.000000 0.000000
vt 0.000000 1.000000
vt 1.000000 1.000000
vt 0.000000 1.000000
vt 1.000000 0.000000
vt 0.000000 0.000000
vt 1.000000 0.000000
vt 0.000000 0.000000
vt 0.000000 0.000000
vt 0.000000 0.000000
vt 1.000000 1.000000
vt 1.000000 0.000000
vt 1.000000 0.000000
vt 1.000000 1.000000
vt 1.000000 1.000000
vt 1.000000 0.000000
vt 1.000000 0.000000
vt 1.000000 1.000000
vt 0.000000 1.000000
vt 0.000000 0.000000
vt 0.000000 0.000000
vt 0.000000 1.000000
vt 1.000000 1.000000
vt 0.000000 1.000000
vt 1.000000 1.000000
vt 0.000000 1.000000
vt 0.000000 1.000000
vt 0.000000 0.000000
vt 0.000000 1.000000
vt 0.000000 1.000000
vt 0.000000 1.000000
vt 1.000000 1.000000
vt 0.000000 0.000000
vt 0.000000 0.000000
vt 1.000000 0.000000
vt 1.000000 0.000000
vt 0.000000 0.000000
vt 1.000000 1.000000
vt 1.000000 0.000000
vt 0.000000 0.000000
vt 1.000000 1.000000
vt 1.000000 0.000000
vt 1.000000 0.000000
vt 0.000000 1.000000
vt 0.000000 1.000000
vt 1.000000 0.000000
vt 0.000000 1.000000
vt 1.000000 0.000000
vt 0.000000 1.000000
vt 0.000000 0.000000
vt 0.000000 0.000000
vt 0.000000 0.000000
vt 0.000000 1.000000
vt 0.000000 0.000000
vt 0.000000 0.000000
vt 1.000000 0.000000
vt 0.000000 0.000000
vt 1.000000 0.000000
vt 1.000000 0.000000
vt 0.000000 0.000000
vt 1.000000 1.000000
vt 1.000000 1.000000
vt 1.000000 0.000000
vt 0.000000 1.000000
vt 0.000000 0.000000
vt 1.000000 0.000000
vt 1.000000 1.000000
vt 1.000000 0.000000
vt 0.000000 1.000000
vt 1.000000 0.000000
vt 0.000000 1.000000
vt 0.000000 0.000000
vt 0.000000 1.000000
vt 1.000000 0.000000
vt 0.000000 0.000000
vt 1.000000 1.000000
vt 0.000000 0.000000
vt 1.000000 0.000000
vt 0.000000 0.000000
vt 0.000000 0.000000
vt 1.000000 1.000000
vt 1.000000 0.000000
vt 1.000000 0.000000
vt 0.000000 1.000000
vt 0.000000 0.000000
vt 1.000000 1.000000
vt 1.000000 0.000000
vt 0.000000 0.000000
vt 1.000000 1.000000
vt 1.000000 0.000000
vt 1.000000 0.000000
vt 0.000000 0.000000
vt 0.000000 0.000000
vt 0.000000 1.000000
vt 1.000000 1.000000
vt 1.000000 0.000000
vt 0.000000 0.000000
vt 1.000000 1.000000
vt 0.000000 0.000000
vt 0.000000 0.000000
vt 1.000000 0.000000
vt 1.000000 1.000000
vt 0.000000 1.000000
vt 1.000000 0.000000
vt 1.000000 0.000000
vt 1.000000 0.000000
vt 1.000000 0.000000
vt 0.000000 0.000000
vt 0.000000 1.000000
vt 1.000000 1.000000
vt 1.000000 0.000000
vt 1.000000 1.000000
vt 0.000000 1.000000
vt 1.000000 0.000000
vt 0.000000 0.000000
vt 0.000000 0.000000
vt 1.000000 1.000000
vt 1.000000 0.000000
vt 0.000000 0.000000
vt 1.000000 0.000000
vt 1.000000 1.000000
vt 0.000000 0.000000
vt 0.000000 1.000000
vt 0.000000 1.000000
vt 0.000000 0.000000
vt 1.000000 0.000000
vt 0.000000 0.000000
vt 1.000000 1.000000
vt 1.000000 1.000000
vt 0.000000 0.000000
vt 0.000000 0.000000
vt 1.000000 1.000000
vt 0.000000 0.000000
vt 1.000000 0.000000
vt 1.000000 0.000000
vt 0.000000 0.000000
vt 0.000000 1.000000
vt 1.000000 1.000000
vt 1.000000 0.000000
vt 1.000000 1.000000
vt 0.000000 0.000000
s 0
usemtl grass_block_top
f 8/8/1 7/7/1 1/1/1 2/2/1
f 31/33/1 30/31/1 17/17/1 18/18/1
f 15/15/1 5/5/1 6/6/1 16/16/1
f 160/175/1 9/9/1 20/20/1 19/19/1
f 28/29/1 11/11/1 13/13/1 29/30/1
f 23/23/1 33/35/1 32/34/1 22/22/1
f 34/36/1 24/24/1 25/25/1 35/37/1
f 12/12/1 3/3/1 4/4/1 14/14/1
f 159/174/1 10/10/1 27/28/1 21/21/1
f 26/27/1 36/39/1 35/38/1 25/26/1
f 39/42/1 30/32/1 31/33/1 40/43/1
f 44/47/1 48/51/1 47/50/1 43/46/1
f 38/41/1 42/45/1 41/44/1 37/40/1
f 46/49/1 52/55/1 51/54/1 45/48/1
f 56/59/1 55/58/1 49/52/1 50/53/1
f 53/56/1 158/173/1 157/172/1 54/57/1
f 64/67/1 63/66/1 57/60/1 58/61/1
f 59/62/1 156/171/1 155/170/1 62/65/1
f 61/64/1 66/70/1 65/68/1 60/63/1
f 129/141/1 134/148/1 133/147/1 132/146/1
f 150/165/1 77/84/1 68/73/1 151/166/1
f 66/71/1 75/81/1 74/79/1 65/69/1
f 67/72/1 76/82/1 75/80/1 66/71/1
f 70/75/1 81/88/1 80/87/1 69/74/1
f 78/85/1 152/167/1 73/78/1 79/86/1
f 86/93/1 85/92/1 75/81/1 76/83/1
f 130/143/1 135/149/1 134/148/1 129/142/1
f 124/135/1 128/140/1 127/139/1 123/133/1
f 88/95/1 154/169/1 153/168/1 89/96/1
f 91/98/1 99/106/1 98/105/1 90/97/1
f 93/100/1 101/108/1 100/107/1 92/99/1
f 149/164/1 148/163/1 87/94/1 84/91/1
f 108/115/1 146/161/1 145/160/1 107/114/1
f 72/77/1 83/90/1 82/89/1 71/76/1
f 109/116/1 147/162/1 106/113/1 110/117/1
f 103/110/1 102/109/1 94/101/1 95/102/1
f 116/123/1 122/131/1 121/130/1 115/122/1
f 118/126/1 124/136/1 123/134/1 117/124/1
f 114/121/1 120/129/1 119/128/1 113/120/1
f 104/111/1 96/103/1 97/104/1 105/112/1
f 122/132/1 126/138/1 125/137/1 121/130/1
f 112/119/1 118/127/1 117/125/1 111/118/1
f 136/151/1 135/150/1 130/144/1 131/145/1
f 138/153/1 140/155/1 139/154/1 137/152/1
f 143/158/1 141/156/1 142/157/1 144/159/1
f 164/179/2 163/178/2 161/176/2 162/177/2
f 166/181/1 168/183/1 167/182/1 165/180/1
f 170/185/1 172/187/1 171/186/1 169/184/1
