# Blender v3.2.0 OBJ File: ''
# www.blender.org
o grass_top_Plane.001
v 4.000000 2.000000 4.000000
v -2.000000 2.000000 4.000000
v -1.000000 2.000000 4.000000
v 0.000000 2.000000 4.000000
v 1.000000 2.000000 4.000000
v 2.000000 2.000000 4.000000
v 3.000000 2.000000 4.000000
v -4.000000 2.000000 1.000000
v -4.000000 2.000000 2.000000
v 4.000000 2.000000 3.000000
v 4.000000 2.000000 2.000000
v -3.000000 2.000000 3.000000
v -3.000000 2.000000 2.000000
v -3.000000 2.000000 1.000000
v -4.000000 4.000000 -1.000000
v -4.000000 4.000000 -2.000000
v -4.000000 4.000000 -3.000000
v 3.000000 4.000000 -3.000000
v -2.000000 2.000000 3.000000
v -2.000000 2.000000 2.000000
v -2.000000 2.000000 1.000000
v -2.000000 2.000000 0.000000
v 2.000000 4.000000 -3.000000
v 1.000000 4.000000 -3.000000
v 0.000000 4.000000 -3.000000
v -1.000000 2.000000 3.000000
v -1.000000 2.000000 2.000000
v -1.000000 2.000000 1.000000
v -1.000000 2.000000 0.000000
v -1.000000 2.000000 -1.000000
v -1.000000 4.000000 -3.000000
v -2.000000 4.000000 -3.000000
v 0.000000 2.000000 3.000000
v 0.000000 2.000000 2.000000
v 0.000000 2.000000 1.000000
v 0.000000 2.000000 0.000000
v 0.000000 2.000000 -1.000000
v -3.000000 4.000000 -3.000000
v -2.000000 4.000000 -4.000000
v 1.000000 2.000000 3.000000
v 1.000000 2.000000 2.000000
v 1.000000 2.000000 1.000000
v 1.000000 2.000000 0.000000
v -1.000000 4.000000 -4.000000
v 0.000000 4.000000 -4.000000
v 1.000000 4.000000 -4.000000
v 2.000000 2.000000 3.000000
v 2.000000 2.000000 2.000000
v 2.000000 2.000000 1.000000
v 2.000000 2.000000 0.000000
v 2.000000 4.000000 -4.000000
v 3.000000 4.000000 -4.000000
v -4.000000 4.000000 -4.000000
v 3.000000 2.000000 3.000000
v 3.000000 2.000000 2.000000
v 3.000000 2.000000 1.000000
v 3.000000 2.000000 0.000000
v -3.000000 4.000000 -4.000000
v 4.000000 4.000000 -4.000000
v 4.000000 4.000000 -3.000000
v -2.000000 3.000000 4.000000
v -3.000000 3.000000 4.000000
v -1.000000 3.000000 -3.000000
v 0.000000 3.000000 -3.000000
v 1.000000 3.000000 -3.000000
v -4.000000 3.000000 4.000000
v -4.000000 3.000000 3.000000
v -4.000000 3.000000 -1.000000
v -4.000000 3.000000 0.000000
v -4.000000 3.000000 1.000000
v 4.000000 3.000000 2.000000
v 4.000000 3.000000 1.000000
v 4.000000 3.000000 0.000000
v 4.000000 3.000000 -1.000000
v 4.000000 3.000000 -2.000000
v -3.000000 3.000000 1.000000
v -3.000000 3.000000 0.000000
v -3.000000 3.000000 -1.000000
v -3.000000 3.000000 -2.000000
v -2.000000 3.000000 1.000000
v -2.000000 3.000000 0.000000
v -2.000000 3.000000 -1.000000
v -2.000000 3.000000 -2.000000
v -1.000000 3.000000 0.000000
v -1.000000 3.000000 -1.000000
v -1.000000 3.000000 -2.000000
v 0.000000 3.000000 0.000000
v 0.000000 3.000000 -1.000000
v 0.000000 3.000000 -2.000000
v 1.000000 3.000000 0.000000
v 1.000000 3.000000 -1.000000
v 1.000000 3.000000 -2.000000
v 2.000000 3.000000 0.000000
v 2.000000 3.000000 -1.000000
v 2.000000 3.000000 -2.000000
v 3.000000 3.000000 2.000000
v 3.000000 3.000000 1.000000
v 3.000000 3.000000 0.000000
v 3.000000 3.000000 -1.000000
v 3.000000 3.000000 -2.000000
v 4.000000 4.000000 -2.000000
v -3.000000 4.000000 -1.000000
v -3.000000 4.000000 -2.000000
v -2.000000 4.000000 -2.000000
v -1.000000 4.000000 -2.000000
v 1.000000 4.000000 -2.000000
v 2.000000 4.000000 -2.000000
v 3.000000 4.000000 -2.000000
v -4.000000 3.000000 2.000000
v -3.000000 3.000000 3.000000
v -3.000000 3.000000 2.000000
v -2.000000 3.000000 3.000000
vn 0.0000 1.0000 0.0000
s off
f 38//1 32//1 39//1 58//1
f 17//1 38//1 58//1 53//1
f 18//1 60//1 59//1 52//1
f 6//1 7//1 54//1 47//1
f 47//1 54//1 55//1 48//1
f 48//1 55//1 56//1 49//1
f 49//1 56//1 57//1 50//1
f 5//1 6//1 47//1 40//1
f 40//1 47//1 48//1 41//1
f 41//1 48//1 49//1 42//1
f 42//1 49//1 50//1 43//1
f 4//1 5//1 40//1 33//1
f 34//1 41//1 42//1 35//1
f 35//1 42//1 43//1 36//1
f 3//1 4//1 33//1 26//1
f 26//1 33//1 34//1 27//1
f 27//1 34//1 35//1 28//1
f 28//1 35//1 36//1 29//1
f 29//1 36//1 37//1 30//1
f 2//1 3//1 26//1 19//1
f 19//1 26//1 27//1 20//1
f 20//1 27//1 28//1 21//1
f 21//1 28//1 29//1 22//1
f 12//1 19//1 20//1 13//1
f 13//1 20//1 21//1 14//1
f 9//1 13//1 14//1 8//1
f 7//1 1//1 10//1 54//1
f 54//1 10//1 11//1 55//1
f 93//1 98//1 99//1 94//1
f 94//1 99//1 100//1 95//1
f 90//1 93//1 94//1 91//1
f 91//1 94//1 95//1 92//1
f 87//1 90//1 91//1 88//1
f 88//1 91//1 92//1 89//1
f 89//1 92//1 65//1 64//1
f 85//1 88//1 89//1 86//1
f 86//1 89//1 64//1 63//1
f 81//1 84//1 85//1 82//1
f 82//1 85//1 86//1 83//1
f 76//1 80//1 81//1 77//1
f 77//1 81//1 82//1 78//1
f 78//1 82//1 83//1 79//1
f 70//1 76//1 77//1 69//1
f 69//1 77//1 78//1 68//1
f 96//1 71//1 72//1 97//1
f 97//1 72//1 73//1 98//1
f 98//1 73//1 74//1 99//1
f 99//1 74//1 75//1 100//1
f 32//1 31//1 44//1 39//1
f 31//1 25//1 45//1 44//1
f 25//1 24//1 46//1 45//1
f 24//1 23//1 51//1 46//1
f 23//1 18//1 52//1 51//1
f 107//1 108//1 18//1 23//1
f 106//1 107//1 23//1 24//1
f 104//1 105//1 31//1 32//1
f 103//1 104//1 32//1 38//1
f 15//1 102//1 103//1 16//1
f 16//1 103//1 38//1 17//1
f 108//1 101//1 60//1 18//1
f 62//1 61//1 112//1 110//1
f 66//1 62//1 110//1 67//1
f 67//1 110//1 111//1 109//1
