# Blender 3.3.1
# www.blender.org
mtllib grass.mtl
o grass
v -3.000000 0.000014 -3.000000
v -3.000000 0.000014 -2.000000
v -3.000000 0.000014 -1.000000
v -3.000000 0.000014 0.000000
v -1.000000 0.000014 -3.000000
v -2.000000 0.000014 -3.000000
v -1.000000 0.000014 0.000000
v -2.000000 0.000014 0.000000
v -1.000000 0.000014 -1.000000
v -2.000000 0.000014 -1.000000
v -1.000000 0.000014 -2.000000
v -2.000000 0.000014 -2.000000
vn -0.0000 -1.0000 -0.0000
vt 0.000000 1.000000
vt 0.000000 0.833333
vt 0.000000 0.666667
vt 0.000000 0.500000
vt 0.333333 1.000000
vt 0.166667 1.000000
vt 0.333333 0.500000
vt 0.166667 0.500000
vt 0.333333 0.666667
vt 0.166667 0.666667
vt 0.333333 0.833333
vt 0.166667 0.833333
s 0
f 3/3/1 2/2/1 12/12/1 10/10/1
f 10/10/1 12/12/1 11/11/1 9/9/1
f 4/4/1 3/3/1 10/10/1 8/8/1
f 8/8/1 10/10/1 9/9/1 7/7/1
f 2/2/1 1/1/1 6/6/1 12/12/1
f 12/12/1 6/6/1 5/5/1 11/11/1
