# Blender 3.3.1
# www.blender.org
mtllib Grass_Block_Top_Y_4.mtl
o Grass_Block_Top_Y_4
v -12.000000 7.000000 4.000001
v -12.000000 6.999999 8.000001
v -12.000000 6.999998 12.000001
v -8.000000 7.000000 4.000001
v -8.000000 6.999999 8.000001
v -8.000000 6.999998 12.000001
v -6.000000 4.000001 -7.000000
v -6.000000 4.000000 -2.999999
v -4.000000 5.999998 16.000002
v -4.000000 5.999998 12.000001
v -3.000000 4.000002 -14.999999
v -3.000000 4.000002 -10.999999
v -2.000000 4.000001 -7.000000
v -2.000000 4.000000 -2.999999
v -1.000000 3.000002 -9.999999
v -1.000000 3.000001 -6.000000
v -8.000000 5.999998 16.000002
v -8.000000 5.999998 12.000001
v 0.000000 4.999998 16.000000
v -4.000000 6.000000 4.000001
v 0.000000 5.999998 12.000001
v 0.000000 5.999999 8.000001
v 0.000000 5.999998 16.000002
v -4.000000 5.999999 8.000001
v 1.000000 4.000002 -14.999999
v 1.000000 4.000002 -10.999999
v 4.000000 4.999999 8.000001
v 3.000000 3.000002 -9.999999
v 3.000000 3.000001 -6.000000
v 0.000000 4.999999 8.000001
v 0.000000 4.999998 12.000001
v 9.000000 3.000001 -5.000000
v 5.000000 3.000000 -1.000000
v 15.000000 3.999999 4.000000
v 15.000000 4.000000 0.000001
v 5.000000 3.000001 -5.000000
v 9.000000 3.000002 -14.999999
v 11.000000 3.999999 4.000000
v 11.000000 4.000000 0.000001
v 17.000000 3.999999 4.000000
v 17.000000 3.000001 -7.000000
v 13.000000 4.999998 12.000001
v 13.000000 4.999998 16.000000
v 13.000000 3.999999 8.000001
v 13.000000 3.999999 4.000000
v 4.000000 5.000000 4.000001
v 17.000000 3.000002 -10.999999
v 13.000000 3.000002 -10.999999
v 13.000000 3.000001 -7.000000
v 5.000000 3.000002 -10.999999
v 5.000000 3.000002 -14.999999
v 0.000000 5.000000 4.000001
v 17.000000 4.999998 12.000001
v 17.000000 4.999998 16.000000
v 9.000000 3.000000 -3.000000
v 13.000000 3.000000 -3.000000
v 9.000000 3.000001 -7.000000
v 13.000000 3.000002 -14.999999
v 17.000000 3.000002 -14.999999
v 17.000000 3.000000 -3.000000
v 9.000000 3.000002 -10.999999
v 9.000000 3.000000 -1.000000
v 17.000000 3.999999 8.000001
v 4.000000 4.999998 12.000001
v 4.000000 4.999998 16.000000
v 0.000000 6.000000 4.000001
v -14.000000 9.000002 -10.999998
v -14.000000 9.000001 -6.999999
v -10.000000 9.000002 -10.999998
v -10.000000 9.000001 -6.999999
v 11.000000 4.000000 -0.999999
v 7.000000 4.000000 -0.999999
v 7.000000 4.000000 3.000001
v 11.000000 4.000000 3.000001
vn -0.0000 1.0000 -0.0000
vt 1.000000 1.000000
vt 1.000000 0.000000
vt 1.000000 1.000000
vt 0.000000 0.000000
vt 0.000000 0.000000
vt 0.000000 0.000000
vt 1.000000 1.000000
vt 0.000000 1.000000
vt 1.000000 0.000000
vt 0.000000 0.000000
vt 1.000000 1.000000
vt 0.000000 1.000000
vt 0.000000 0.000000
vt 1.000000 0.000000
vt 0.000000 0.000000
vt 1.000000 0.000000
vt 1.000000 1.000000
vt 0.000000 1.000000
vt 1.000000 1.000000
vt 1.000000 0.000000
vt 0.000000 0.000000
vt 1.000000 0.000000
vt 0.000000 1.000000
vt 0.000000 0.000000
vt 0.000000 1.000000
vt 0.000000 0.000000
vt 0.000000 1.000000
vt 0.000000 0.000000
vt 0.000000 0.000000
vt 0.000000 1.000000
vt 1.000000 0.000000
vt 0.000000 0.000000
vt 0.000000 1.000000
vt 1.000000 0.000000
vt 1.000000 1.000000
vt 1.000000 1.000000
vt 0.000000 0.000000
vt 1.000000 1.000000
vt 1.000000 1.000000
vt 0.000000 1.000000
vt 0.000000 0.000000
vt 1.000000 1.000000
vt 0.000000 0.000000
vt 1.000000 0.000000
vt 1.000000 1.000000
vt 0.000000 0.000000
vt 1.000000 0.000000
vt 0.000000 1.000000
vt 0.000000 1.000000
vt 1.000000 0.000000
vt 0.000000 1.000000
vt 0.000000 1.000000
vt 0.000000 0.000000
vt 0.000000 1.000000
vt 1.000000 1.000000
vt 1.000000 1.000000
vt 1.000000 0.000000
vt 1.000000 1.000000
vt 0.000000 0.000000
vt 0.000000 1.000000
vt 1.000000 0.000000
vt 1.000000 1.000000
vt 0.000000 1.000000
vt 0.000000 1.000000
vt 1.000000 1.000000
vt 0.000000 0.000000
vt 1.000000 0.000000
vt 1.000000 1.000000
vt 1.000000 0.000000
vt 1.000000 1.000000
vt 1.000000 0.000000
vt 0.000000 0.000000
vt 0.000000 1.000000
vt 0.000000 0.000000
vt 0.000000 0.000000
vt 0.000000 0.000000
vt 0.000000 1.000000
vt 1.000000 1.000000
vt 1.000000 0.000000
vt 1.000000 0.000000
vt 1.000000 1.000000
vt 1.000000 1.000000
vt 0.000000 0.000000
vt 0.000000 1.000000
vt 0.000000 0.000000
vt 0.000000 1.000000
vt 0.000000 1.000000
vt 1.000000 1.000000
vt 0.000000 0.000000
vt 0.000000 0.000000
vt 0.000000 1.000000
vt 1.000000 0.000000
vt 0.000000 0.000000
s 1
usemtl grass_block_top
f 4/5/1 1/1/1 2/2/1 5/6/1
f 5/7/1 2/3/1 3/4/1 6/8/1
f 13/17/1 7/9/1 8/10/1 14/18/1
s 0
f 17/21/1 9/11/1 10/14/1 18/22/1
s 1
f 25/32/1 11/15/1 12/16/1 26/33/1
s 0
f 22/27/1 66/85/1 20/24/1 24/30/1
f 22/28/1 24/31/1 10/13/1 21/25/1
f 19/23/1 65/84/1 64/82/1 31/39/1
s 1
f 28/36/1 15/19/1 16/20/1 29/37/1
s 0
f 64/83/1 27/34/1 30/38/1 31/40/1
f 41/50/1 49/61/1 56/69/1 60/76/1
f 58/73/1 37/46/1 61/77/1 48/59/1
f 23/29/1 21/26/1 10/14/1 9/12/1
f 32/41/1 36/45/1 33/42/1 62/80/1
f 63/81/1 40/49/1 45/55/1 44/54/1
f 27/35/1 46/56/1 52/65/1 30/38/1
f 61/78/1 37/46/1 51/64/1 50/63/1
f 41/51/1 47/57/1 48/58/1 49/62/1
f 39/48/1 38/47/1 34/43/1 35/44/1
f 53/66/1 42/52/1 43/53/1 54/67/1
f 49/62/1 57/71/1 55/68/1 56/70/1
f 61/79/1 57/72/1 49/62/1 48/59/1
f 59/75/1 58/74/1 48/60/1 47/57/1
f 69/88/1 67/86/1 68/87/1 70/89/1
f 73/92/1 74/93/1 71/90/1 72/91/1
