# Blender 3.3.1
# www.blender.org
mtllib ground_stone.mtl
o ground_stone
v -3.000000 0.000000 -2.000000
v -3.000000 0.000000 -1.000000
v -4.000000 0.000000 -1.000000
v -4.000000 0.000000 -2.000000
v -1.000000 0.000000 -1.000000
v -2.000000 0.000000 -1.000000
v -1.000000 0.000000 -2.000000
v -2.000000 0.000000 -2.000000
vn -0.0000 1.0000 -0.0000
vt 0.000000 0.833333
vt 0.000000 0.666667
vt 0.000000 0.666667
vt 0.000000 0.833333
vt 0.333333 0.666667
vt 0.166667 0.666667
vt 0.333333 0.833333
vt 0.166667 0.833333
s 0
f 2/2/1 6/6/1 8/8/1 1/1/1
f 6/6/1 5/5/1 7/7/1 8/8/1
f 2/2/1 1/1/1 4/4/1 3/3/1
