# Blender 3.3.1
# www.blender.org
mtllib Iron_Ore.mtl
o Iron_Ore
v -17.000000 0.000001 -9.000000
v -17.000000 1.000001 -9.000000
v -17.000000 2.000001 -9.000000
v -17.000000 0.000001 -8.000000
v -17.000000 1.000001 -8.000000
v -17.000000 2.000001 -8.000000
v -17.000000 0.000001 -7.000000
v -17.000000 1.000001 -7.000000
v -17.000000 2.000001 -7.000000
vn -1.0000 -0.0000 -0.0000
vt 0.000000 0.000000
vt 0.000000 1.000000
vt 0.000000 0.000000
vt 0.000000 1.000000
vt 1.000000 0.000000
vt 0.000000 0.000000
vt 1.000000 1.000000
vt 1.000000 0.000000
vt 0.000000 1.000000
vt 0.000000 0.000000
vt 1.000000 1.000000
vt 0.000000 1.000000
vt 1.000000 0.000000
vt 1.000000 1.000000
vt 1.000000 0.000000
vt 1.000000 1.000000
s 0
usemtl iron_ore
f 4/5/1 5/7/1 2/2/1 1/1/1
f 5/8/1 6/11/1 3/4/1 2/3/1
f 7/13/1 8/14/1 5/9/1 4/6/1
f 8/15/1 9/16/1 6/12/1 5/10/1
