# Blender 3.3.1
# www.blender.org
mtllib Oak_Leaves_Y_2.mtl
o Oak_Leaves_Y_2
v -7.000000 7.000000 -3.999999
v -7.000000 8.000001 -3.999999
v -7.000000 9.000001 -2.999999
v -7.000000 9.000001 -3.999999
v -7.000000 7.000000 -1.999999
v -7.000000 8.000000 -1.999999
v -7.000000 9.000000 -1.999999
v -6.000000 7.000000 0.000001
v -6.000000 8.000000 0.000001
v -5.000000 7.000001 -4.999999
v -5.000000 8.000001 -4.999999
v -5.000000 9.000001 -4.999999
v -5.000000 7.000000 0.000001
v -6.000000 9.000000 0.000001
v -5.000000 9.000000 0.000001
v -4.000000 9.000001 -4.999999
v -4.000000 7.000000 0.000001
v -4.000000 8.000000 0.000001
v -4.000000 9.000000 0.000001
v -3.000000 7.000001 -4.999999
v -3.000000 8.000001 -4.999999
v -3.000000 9.000001 -4.999999
v -2.000000 7.000000 -2.999999
v -2.000000 8.000001 -2.999999
v -2.000000 9.000001 -2.999999
v -2.000000 7.000000 -1.999999
v -2.000000 9.000000 -1.999999
v -2.000000 7.000000 -0.999999
v -2.000000 8.000000 -0.999999
v -2.000000 9.000000 -0.999999
v 2.000000 6.000000 0.000001
v 2.000000 7.000000 0.000001
v 1.000000 6.000000 2.000001
v 1.000000 7.000000 2.000001
v 1.000000 8.000000 2.000001
v 1.000000 6.000000 3.000001
v 1.000000 8.000000 3.000001
v 1.000000 6.000000 4.000001
v 1.000000 7.000000 4.000001
v 1.000000 8.000000 4.000001
v 2.000000 5.999999 5.000001
v 2.000000 6.999999 5.000001
v 3.000000 6.000000 0.000001
v 2.000000 8.000000 0.000001
v 3.000000 8.000000 0.000001
v 3.000000 5.999999 5.000001
v 2.000000 7.999999 5.000001
v 3.000000 7.999999 5.000001
v 4.000000 6.000000 0.000001
v 4.000000 8.000000 0.000001
v 4.000000 5.999999 5.000001
v 4.000000 7.999999 5.000001
v 5.000000 6.000000 0.000001
v 5.000000 8.000000 0.000001
v 5.000000 5.999999 5.000001
v 5.000000 7.999999 5.000001
v 6.000000 6.000000 1.000001
v 6.000000 6.000000 0.000001
v 6.000000 7.000000 0.000001
v 6.000000 7.000000 1.000001
v 6.000000 8.000000 0.000001
v 6.000000 8.000000 1.000001
v 6.000000 6.000000 2.000001
v 6.000000 8.000000 2.000001
v 6.000000 6.000000 3.000001
v 6.000000 8.000000 3.000001
v 6.000000 6.000000 4.000001
v 6.000000 8.000000 4.000001
v 6.000000 5.999999 5.000001
v 6.000000 7.999999 5.000001
vn -1.0000 -0.0000 -0.0000
vn -0.0000 -0.0000 -1.0000
vn -0.0000 -0.0000 1.0000
vn 1.0000 -0.0000 -0.0000
vt 0.000000 0.000000
vt 0.000000 1.000000
vt 1.000000 1.000000
vt 0.000000 1.000000
vt 1.000000 0.000000
vt 1.000000 0.000000
vt 1.000000 1.000000
vt 0.000000 0.000000
vt 0.000000 1.000000
vt 1.000000 0.000000
vt 1.000000 0.000000
vt 1.000000 1.000000
vt 0.000000 0.000000
vt 0.000000 1.000000
vt 1.000000 1.000000
vt 1.000000 1.000000
vt 1.000000 0.000000
vt 1.000000 0.000000
vt 1.000000 1.000000
vt 0.000000 0.000000
vt 0.000000 1.000000
vt 0.000000 1.000000
vt 1.000000 0.000000
vt 1.000000 0.000000
vt 1.000000 1.000000
vt 0.000000 0.000000
vt 1.000000 1.000000
vt 0.000000 0.000000
vt 0.000000 1.000000
vt 0.000000 1.000000
vt 1.000000 0.000000
vt 1.000000 0.000000
vt 0.000000 0.000000
vt 0.000000 1.000000
vt 0.000000 1.000000
vt 0.000000 0.000000
vt 1.000000 1.000000
vt 1.000000 0.000000
vt 1.000000 0.000000
vt 1.000000 1.000000
vt 0.000000 0.000000
vt 0.000000 1.000000
vt 0.000000 0.000000
vt 1.000000 1.000000
vt 1.000000 1.000000
vt 0.000000 0.000000
vt 0.000000 1.000000
vt 1.000000 1.000000
vt 0.000000 0.000000
vt 1.000000 0.000000
vt 0.000000 1.000000
vt 1.000000 1.000000
vt 1.000000 0.000000
vt 0.000000 0.000000
vt 1.000000 1.000000
vt 0.000000 1.000000
vt 0.000000 0.000000
vt 1.000000 1.000000
vt 0.000000 0.000000
vt 1.000000 1.000000
vt 1.000000 0.000000
vt 0.000000 0.000000
vt 0.000000 1.000000
vt 1.000000 0.000000
vt 0.000000 1.000000
vt 1.000000 1.000000
vt 0.000000 0.000000
vt 1.000000 1.000000
vt 0.000000 0.000000
vt 1.000000 0.000000
vt 0.000000 1.000000
vt 1.000000 1.000000
vt 0.000000 0.000000
vt 1.000000 1.000000
vt 1.000000 0.000000
vt 0.000000 0.000000
vt 1.000000 1.000000
vt 0.000000 1.000000
s 0
usemtl oak_leaves
f 5/5/1 6/6/1 7/7/1 3/3/1 4/4/1 2/2/1 1/1/1
f 11/11/2 12/12/2 16/16/2 22/22/2 21/21/2 20/20/2 10/10/2
f 39/39/1 40/40/1 37/37/1 35/35/1 34/34/1 33/33/1 36/36/1 38/38/1
f 32/32/2 44/44/2 45/45/2 50/51/2 49/49/2 43/43/2 31/31/2
f 15/15/3 14/14/3 9/9/3 8/8/3 13/13/3 17/17/3 18/18/3 19/19/3
f 51/53/3 52/55/3 48/48/3 47/47/3 42/42/3 41/41/3 46/46/3
f 24/24/4 25/25/4 27/27/4 30/30/4 29/29/4 28/28/4 26/26/4 23/23/4
f 54/58/2 61/65/2 59/63/2 58/62/2 53/57/2 49/50/2 50/52/2
f 55/59/3 69/75/3 70/77/3 56/60/3 52/56/3 51/54/3
f 65/69/4 63/67/4 57/61/4 60/64/4 62/66/4 64/68/4 66/71/4
f 65/70/4 66/72/4 68/74/4 70/78/4 69/76/4 67/73/4
