# Blender 3.3.1
# www.blender.org
mtllib Oak_Leaves_Y.mtl
o Oak_Leaves_Y
v -7.000000 7.000000 -3.999999
v -7.000000 8.000001 -3.999999
v -6.000000 7.000000 -3.999999
v -6.000000 8.000001 -3.999999
v -7.000000 9.000001 -2.999999
v -7.000000 9.000001 -3.999999
v -6.000000 9.000001 -3.999999
v -6.000000 9.000001 -2.999999
v -7.000000 7.000000 -1.999999
v -7.000000 8.000000 -1.999999
v -7.000000 9.000000 -1.999999
v -6.000000 9.000000 -1.999999
v -7.000000 7.000000 -0.999999
v -7.000000 8.000000 -0.999999
v -7.000000 9.000000 -0.999999
v -6.000000 9.000000 -0.999999
v -6.000000 8.000000 -0.999999
v -7.000000 7.000000 0.000001
v -7.000000 8.000000 0.000001
v -6.000000 7.000000 0.000001
v -6.000000 8.000000 0.000001
v -6.000000 7.000001 -4.999999
v -6.000000 8.000001 -4.999999
v -5.000000 7.000000 -3.999999
v -5.000000 7.000001 -4.999999
v -5.000000 8.000001 -4.999999
v -6.000000 9.000001 -4.999999
v -5.000000 9.000001 -4.999999
v -5.000000 9.000001 -3.999999
v -6.000000 10.000001 -2.999998
v -6.000000 10.000001 -3.999998
v -5.000000 10.000001 -3.999998
v -5.000000 10.000001 -2.999998
v -6.000000 10.000000 -1.999998
v -6.000000 11.000000 -1.999998
v -6.000000 11.000001 -2.999998
v -5.000000 11.000001 -2.999998
v -5.000000 11.000000 -1.999998
v -5.000000 10.000000 -1.999998
v -6.000000 10.000000 -0.999998
v -5.000000 10.000000 -0.999998
v -5.000000 9.000000 -0.999999
v -6.000000 9.000000 0.000001
v -5.000000 9.000000 0.000001
v -4.000000 9.000001 -4.999999
v -4.000000 9.000001 -3.999999
v -4.000000 7.000000 -2.999999
v -4.000000 10.000001 -3.999998
v -4.000000 9.000001 -2.999999
v -4.000000 10.000001 -2.999998
v -5.000000 11.000001 -3.999998
v -4.000000 11.000001 -3.999998
v -4.000000 11.000001 -2.999998
v -4.000000 7.000000 -1.999999
v -4.000000 11.000000 -1.999998
v -4.000000 9.000000 -0.999999
v -4.000000 10.000000 -0.999998
v -5.000000 11.000000 -0.999998
v -4.000000 10.000000 -1.999998
v -4.000000 11.000000 -0.999998
v -4.000000 7.000000 0.000001
v -4.000000 8.000000 0.000001
v -4.000000 9.000000 0.000001
v -3.000000 7.000000 -3.999999
v -3.000000 7.000001 -4.999999
v -3.000000 8.000001 -4.999999
v -3.000000 8.000001 -3.999999
v -3.000000 9.000001 -4.999999
v -3.000000 9.000001 -3.999999
v -3.000000 7.000000 -2.999999
v -3.000000 9.000001 -2.999999
v -3.000000 7.000000 -1.999999
v -3.000000 10.000001 -2.999998
v -3.000000 9.000000 -1.999999
v -3.000000 10.000000 -1.999998
v -3.000000 11.000001 -2.999998
v -3.000000 11.000000 -1.999998
v -3.000000 7.000000 -0.999999
v -3.000000 9.000000 -0.999999
v -3.000000 10.000000 -0.999998
v -3.000000 7.000000 0.000001
v -3.000000 8.000000 -0.999999
v -3.000000 8.000000 0.000001
v -3.000000 9.000000 0.000001
v -2.000000 8.000001 -3.999999
v -2.000000 8.000001 -4.999999
v -2.000000 9.000001 -4.999999
v -2.000000 9.000001 -3.999999
v -2.000000 7.000000 -2.999999
v -2.000000 7.000000 -3.999999
v -2.000000 8.000001 -2.999999
v -2.000000 9.000001 -2.999999
v -2.000000 7.000000 -1.999999
v -2.000000 9.000000 -1.999999
v -2.000000 7.000000 -0.999999
v -2.000000 8.000000 -0.999999
v -2.000000 9.000000 -0.999999
v -2.000000 8.000000 0.000001
v -2.000000 9.000000 0.000001
v 1.000000 6.000000 0.000001
v 1.000000 6.000000 1.000001
v 1.000000 7.000000 1.000001
v 1.000000 7.000000 0.000001
v 2.000000 6.000000 1.000001
v 2.000000 6.000000 0.000001
v 2.000000 7.000000 0.000001
v 2.000000 7.000000 1.000001
v 1.000000 6.000000 2.000001
v 1.000000 7.000000 2.000001
v 1.000000 8.000000 2.000001
v 1.000000 8.000000 1.000001
v 2.000000 8.000000 1.000001
v 2.000000 8.000000 2.000001
v 1.000000 8.000000 3.000001
v 2.000000 8.000000 3.000001
v 1.000000 6.000000 4.000001
v 1.000000 7.000000 4.000001
v 1.000000 8.000000 4.000001
v 2.000000 8.000000 4.000001
v 2.000000 7.000000 4.000001
v 1.000000 5.999999 5.000001
v 1.000000 6.999999 5.000001
v 2.000000 5.999999 5.000001
v 2.000000 6.999999 5.000001
v 3.000000 6.000000 1.000001
v 3.000000 6.000000 0.000001
v 2.000000 8.000000 0.000001
v 3.000000 8.000000 0.000001
v 3.000000 8.000000 1.000001
v 3.000000 8.000000 2.000001
v 3.000000 6.000000 3.000001
v 2.000000 8.999999 3.000001
v 2.000000 9.000000 2.000001
v 3.000000 9.000000 2.000001
v 2.000000 9.999999 3.000002
v 2.000000 10.000000 2.000002
v 3.000000 10.000000 2.000002
v 3.000000 9.999999 3.000002
v 3.000000 8.999999 3.000001
v 3.000000 6.000000 4.000001
v 2.000000 8.999999 4.000001
v 3.000000 8.999999 4.000001
v 3.000000 8.000000 4.000001
v 3.000000 5.999999 5.000001
v 2.000000 7.999999 5.000001
v 3.000000 7.999999 5.000001
v 4.000000 8.000000 0.000001
v 4.000000 8.000000 1.000001
v 3.000000 9.000000 1.000001
v 4.000000 9.000000 1.000001
v 3.000000 10.000000 1.000002
v 4.000000 10.000000 1.000002
v 4.000000 9.000000 2.000001
v 4.000000 10.000000 2.000002
v 4.000000 6.000000 3.000001
v 4.000000 9.999999 3.000002
v 4.000000 6.000000 4.000001
v 4.000000 8.000000 4.000001
v 4.000000 8.999999 4.000001
v 3.000000 9.999999 4.000001
v 4.000000 8.999999 3.000001
v 4.000000 9.999999 4.000001
v 4.000000 5.999999 5.000001
v 4.000000 7.999999 5.000001
v 5.000000 6.000000 1.000001
v 5.000000 6.000000 0.000001
v 5.000000 8.000000 0.000001
v 5.000000 8.000000 1.000001
v 5.000000 6.000000 2.000001
v 5.000000 9.000000 1.000001
v 5.000000 8.000000 2.000001
v 5.000000 9.000000 2.000001
v 5.000000 8.000000 3.000001
v 5.000000 8.999999 3.000001
v 5.000000 10.000000 2.000002
v 5.000000 9.999999 3.000002
v 5.000000 6.000000 4.000001
v 5.000000 8.000000 4.000001
v 5.000000 8.999999 4.000001
v 5.000000 5.999999 5.000001
v 5.000000 7.999999 5.000001
v 6.000000 6.000000 1.000001
v 6.000000 6.000000 0.000001
v 6.000000 7.000000 0.000001
v 6.000000 7.000000 1.000001
v 6.000000 8.000000 0.000001
v 6.000000 8.000000 1.000001
v 6.000000 6.000000 2.000001
v 6.000000 8.000000 2.000001
v 6.000000 8.000000 3.000001
v 6.000000 6.000000 4.000001
v 6.000000 8.000000 4.000001
v 6.000000 5.999999 5.000001
v 6.000000 7.999999 5.000001
vn -0.0000 -0.0000 -1.0000
vn -0.0000 1.0000 -0.0000
vn -1.0000 -0.0000 -0.0000
vn -0.0000 -0.0000 1.0000
vn -0.0000 -1.0000 -0.0000
vn 1.0000 -0.0000 -0.0000
vt 1.000000 0.000000
vt 1.000000 1.000000
vt 1.000000 0.000000
vt 1.000000 0.000000
vt 0.000000 0.000000
vt 0.000000 1.000000
vt 0.000000 0.000000
vt 1.000000 1.000000
vt 1.000000 0.000000
vt 0.000000 0.000000
vt 0.000000 1.000000
vt 1.000000 1.000000
vt 0.000000 1.000000
vt 0.000000 1.000000
vt 1.000000 1.000000
vt 0.000000 0.000000
vt 1.000000 0.000000
vt 1.000000 1.000000
vt 1.000000 0.000000
vt 0.000000 0.000000
vt 0.000000 0.000000
vt 0.000000 1.000000
vt 0.000000 0.000000
vt 0.000000 0.000000
vt 0.000000 1.000000
vt 1.000000 1.000000
vt 1.000000 0.000000
vt 0.000000 0.000000
vt 1.000000 0.000000
vt 0.000000 0.000000
vt 1.000000 1.000000
vt 1.000000 0.000000
vt 0.000000 0.000000
vt 0.000000 1.000000
vt 1.000000 1.000000
vt 0.000000 0.000000
vt 0.000000 1.000000
vt 1.000000 1.000000
vt 1.000000 0.000000
vt 0.000000 0.000000
vt 0.000000 1.000000
vt 1.000000 0.000000
vt 1.000000 1.000000
vt 0.000000 0.000000
vt 1.000000 0.000000
vt 0.000000 0.000000
vt 1.000000 1.000000
vt 0.000000 0.000000
vt 0.000000 1.000000
vt 1.000000 0.000000
vt 1.000000 1.000000
vt 1.000000 0.000000
vt 0.000000 0.000000
vt 0.000000 1.000000
vt 1.000000 0.000000
vt 0.000000 1.000000
vt 1.000000 1.000000
vt 0.000000 0.000000
vt 1.000000 0.000000
vt 1.000000 0.000000
vt 1.000000 1.000000
vt 0.000000 0.000000
vt 0.000000 1.000000
vt 0.000000 0.000000
vt 1.000000 1.000000
vt 0.000000 1.000000
vt 1.000000 1.000000
vt 0.000000 1.000000
vt 0.000000 0.000000
vt 1.000000 0.000000
vt 1.000000 1.000000
vt 0.000000 1.000000
vt 0.000000 0.000000
vt 1.000000 0.000000
vt 1.000000 1.000000
vt 0.000000 1.000000
vt 0.000000 1.000000
vt 1.000000 1.000000
vt 0.000000 0.000000
vt 1.000000 0.000000
vt 0.000000 0.000000
vt 1.000000 0.000000
vt 1.000000 1.000000
vt 1.000000 0.000000
vt 0.000000 0.000000
vt 0.000000 1.000000
vt 1.000000 1.000000
vt 0.000000 0.000000
vt 0.000000 1.000000
vt 1.000000 1.000000
vt 0.000000 1.000000
vt 1.000000 1.000000
vt 0.000000 0.000000
vt 0.000000 1.000000
vt 1.000000 0.000000
vt 1.000000 1.000000
vt 0.000000 0.000000
vt 0.000000 1.000000
vt 1.000000 0.000000
vt 1.000000 1.000000
vt 0.000000 0.000000
vt 1.000000 1.000000
vt 0.000000 0.000000
vt 0.000000 1.000000
vt 1.000000 1.000000
vt 0.000000 1.000000
vt 1.000000 0.000000
vt 0.000000 0.000000
vt 1.000000 0.000000
vt 1.000000 1.000000
vt 0.000000 0.000000
vt 0.000000 1.000000
vt 1.000000 1.000000
vt 0.000000 0.000000
vt 1.000000 0.000000
vt 0.000000 0.000000
vt 1.000000 1.000000
vt 0.000000 1.000000
vt 1.000000 0.000000
vt 0.000000 0.000000
vt 0.000000 1.000000
vt 0.000000 1.000000
vt 0.000000 1.000000
vt 1.000000 1.000000
vt 0.000000 0.000000
vt 1.000000 0.000000
vt 0.000000 0.000000
vt 1.000000 0.000000
vt 0.000000 1.000000
vt 0.000000 0.000000
vt 1.000000 1.000000
vt 1.000000 0.000000
vt 1.000000 1.000000
vt 0.000000 1.000000
vt 0.000000 1.000000
vt 1.000000 1.000000
vt 1.000000 0.000000
vt 1.000000 1.000000
vt 0.000000 1.000000
vt 0.000000 0.000000
vt 1.000000 0.000000
vt 1.000000 1.000000
vt 0.000000 0.000000
vt 0.000000 1.000000
vt 1.000000 0.000000
vt 1.000000 1.000000
vt 0.000000 0.000000
vt 0.000000 1.000000
vt 1.000000 1.000000
vt 1.000000 0.000000
vt 0.000000 0.000000
vt 0.000000 1.000000
vt 1.000000 1.000000
vt 0.000000 0.000000
vt 0.000000 1.000000
vt 1.000000 0.000000
vt 0.000000 0.000000
vt 0.000000 1.000000
vt 0.000000 1.000000
vt 1.000000 0.000000
vt 1.000000 1.000000
vt 0.000000 0.000000
vt 0.000000 1.000000
vt 0.000000 0.000000
vt 1.000000 0.000000
vt 0.000000 0.000000
vt 0.000000 1.000000
vt 0.000000 0.000000
vt 0.000000 1.000000
vt 1.000000 0.000000
vt 1.000000 0.000000
vt 1.000000 1.000000
vt 0.000000 1.000000
vt 1.000000 0.000000
vt 0.000000 1.000000
vt 0.000000 0.000000
vt 1.000000 1.000000
vt 1.000000 1.000000
vt 0.000000 1.000000
vt 1.000000 0.000000
vt 1.000000 1.000000
vt 0.000000 0.000000
vt 0.000000 1.000000
vt 1.000000 1.000000
vt 0.000000 0.000000
vt 0.000000 1.000000
vt 1.000000 0.000000
vt 0.000000 0.000000
vt 0.000000 1.000000
vt 1.000000 0.000000
vt 0.000000 0.000000
vt 0.000000 1.000000
vt 0.000000 1.000000
vt 1.000000 1.000000
vt 0.000000 0.000000
vt 1.000000 0.000000
vt 1.000000 0.000000
vt 0.000000 0.000000
vt 0.000000 1.000000
vt 0.000000 1.000000
vt 0.000000 0.000000
vt 1.000000 0.000000
vt 1.000000 1.000000
vt 0.000000 1.000000
vt 1.000000 1.000000
vt 0.000000 1.000000
vt 1.000000 0.000000
vt 1.000000 1.000000
vt 1.000000 0.000000
vt 0.000000 0.000000
vt 1.000000 0.000000
vt 1.000000 1.000000
vt 0.000000 0.000000
vt 0.000000 1.000000
vt 0.000000 1.000000
vt 1.000000 0.000000
vt 1.000000 1.000000
vt 0.000000 0.000000
vt 1.000000 0.000000
vt 1.000000 1.000000
vt 0.000000 1.000000
vt 0.000000 1.000000
vt 1.000000 1.000000
vt 1.000000 0.000000
vt 0.000000 0.000000
vt 1.000000 0.000000
vt 1.000000 1.000000
vt 0.000000 0.000000
vt 0.000000 1.000000
vt 0.000000 0.000000
vt 0.000000 1.000000
vt 1.000000 1.000000
vt 1.000000 0.000000
vt 1.000000 1.000000
vt 0.000000 0.000000
vt 1.000000 0.000000
vt 0.000000 1.000000
vt 1.000000 1.000000
vt 0.000000 1.000000
vt 1.000000 0.000000
vt 1.000000 1.000000
vt 1.000000 0.000000
vt 0.000000 0.000000
vt 1.000000 1.000000
vt 1.000000 1.000000
vt 0.000000 0.000000
vt 1.000000 0.000000
vt 0.000000 1.000000
vt 0.000000 0.000000
vt 0.000000 1.000000
vt 1.000000 0.000000
vt 1.000000 1.000000
vt 1.000000 0.000000
vt 1.000000 1.000000
vt 1.000000 0.000000
vt 1.000000 1.000000
vt 1.000000 0.000000
vt 1.000000 1.000000
vt 1.000000 0.000000
vt 1.000000 0.000000
vt 1.000000 1.000000
vt 0.000000 0.000000
vt 1.000000 0.000000
vt 0.000000 1.000000
vt 1.000000 0.000000
vt 1.000000 1.000000
vt 0.000000 0.000000
vt 0.000000 1.000000
vt 1.000000 0.000000
vt 1.000000 0.000000
vt 0.000000 0.000000
vt 1.000000 1.000000
vt 0.000000 1.000000
vt 0.000000 0.000000
vt 1.000000 0.000000
vt 1.000000 1.000000
vt 0.000000 1.000000
vt 1.000000 0.000000
vt 0.000000 0.000000
vt 1.000000 1.000000
vt 0.000000 0.000000
vt 0.000000 1.000000
vt 0.000000 1.000000
vt 1.000000 1.000000
vt 0.000000 0.000000
vt 0.000000 0.000000
vt 1.000000 0.000000
vt 1.000000 0.000000
vt 1.000000 1.000000
vt 1.000000 0.000000
vt 1.000000 1.000000
vt 0.000000 0.000000
vt 0.000000 1.000000
vt 1.000000 1.000000
vt 0.000000 1.000000
vt 1.000000 1.000000
vt 0.000000 0.000000
vt 0.000000 1.000000
vt 1.000000 1.000000
vt 0.000000 0.000000
vt 1.000000 0.000000
vt 0.000000 0.000000
vt 0.000000 1.000000
vt 1.000000 1.000000
vt 1.000000 0.000000
vt 0.000000 0.000000
vt 0.000000 0.000000
vt 0.000000 0.000000
vt 0.000000 1.000000
vt 0.000000 0.000000
vt 0.000000 1.000000
vt 1.000000 1.000000
vt 1.000000 0.000000
vt 0.000000 0.000000
vt 0.000000 1.000000
vt 1.000000 0.000000
vt 1.000000 1.000000
vt 0.000000 0.000000
vt 1.000000 0.000000
vt 0.000000 0.000000
vt 1.000000 1.000000
vt 0.000000 0.000000
vt 0.000000 1.000000
vt 1.000000 0.000000
vt 1.000000 1.000000
vt 1.000000 0.000000
vt 1.000000 0.000000
vt 1.000000 1.000000
vt 0.000000 1.000000
vt 1.000000 1.000000
vt 0.000000 1.000000
vt 1.000000 1.000000
vt 0.000000 0.000000
vt 1.000000 0.000000
vt 0.000000 0.000000
vt 1.000000 0.000000
vt 0.000000 1.000000
vt 1.000000 1.000000
vt 1.000000 0.000000
vt 0.000000 0.000000
vt 0.000000 1.000000
vt 0.000000 1.000000
vt 1.000000 1.000000
vt 0.000000 0.000000
vt 1.000000 0.000000
vt 0.000000 1.000000
vt 0.000000 0.000000
vt 1.000000 1.000000
vt 1.000000 0.000000
vt 1.000000 1.000000
vt 0.000000 0.000000
vt 0.000000 1.000000
vt 1.000000 1.000000
vt 0.000000 1.000000
vt 1.000000 1.000000
vt 0.000000 0.000000
vt 0.000000 1.000000
vt 1.000000 0.000000
vt 1.000000 1.000000
vt 0.000000 0.000000
vt 0.000000 1.000000
vt 1.000000 0.000000
vt 1.000000 1.000000
vt 0.000000 0.000000
vt 0.000000 0.000000
vt 0.000000 1.000000
vt 1.000000 1.000000
vt 0.000000 0.000000
vt 0.000000 1.000000
vt 1.000000 1.000000
vt 0.000000 1.000000
vt 1.000000 0.000000
vt 0.000000 0.000000
vt 1.000000 0.000000
vt 1.000000 1.000000
vt 0.000000 0.000000
vt 0.000000 1.000000
vt 0.000000 0.000000
vt 1.000000 1.000000
vt 0.000000 0.000000
vt 1.000000 0.000000
vt 0.000000 0.000000
vt 1.000000 1.000000
vt 0.000000 1.000000
vt 0.000000 0.000000
vt 1.000000 0.000000
vt 0.000000 1.000000
vt 1.000000 1.000000
vt 0.000000 0.000000
vt 1.000000 0.000000
vt 0.000000 0.000000
vt 1.000000 0.000000
vt 1.000000 1.000000
vt 0.000000 1.000000
vt 1.000000 1.000000
vt 0.000000 1.000000
vt 0.000000 1.000000
vt 1.000000 1.000000
vt 0.000000 0.000000
vt 1.000000 0.000000
vt 1.000000 0.000000
vt 1.000000 1.000000
vt 0.000000 1.000000
vt 1.000000 1.000000
vt 1.000000 0.000000
vt 1.000000 1.000000
vt 0.000000 0.000000
vt 0.000000 1.000000
vt 1.000000 0.000000
vt 1.000000 1.000000
vt 0.000000 1.000000
vt 1.000000 0.000000
vt 1.000000 1.000000
vt 0.000000 0.000000
vt 0.000000 1.000000
vt 1.000000 1.000000
vt 1.000000 0.000000
vt 0.000000 0.000000
vt 0.000000 1.000000
vt 1.000000 1.000000
vt 0.000000 0.000000
vt 0.000000 1.000000
vt 1.000000 0.000000
vt 0.000000 0.000000
vt 0.000000 1.000000
vt 0.000000 1.000000
vt 1.000000 0.000000
vt 1.000000 1.000000
vt 1.000000 0.000000
vt 0.000000 0.000000
vt 1.000000 0.000000
vt 0.000000 0.000000
vt 0.000000 0.000000
vt 0.000000 1.000000
vt 0.000000 1.000000
vt 1.000000 1.000000
vt 0.000000 1.000000
vt 1.000000 0.000000
vt 0.000000 0.000000
vt 0.000000 1.000000
vt 0.000000 0.000000
vt 0.000000 1.000000
vt 1.000000 1.000000
vt 1.000000 0.000000
vt 0.000000 0.000000
vt 0.000000 1.000000
vt 0.000000 1.000000
vt 1.000000 1.000000
vt 0.000000 0.000000
vt 1.000000 0.000000
vt 1.000000 0.000000
vt 0.000000 0.000000
vt 0.000000 1.000000
vt 0.000000 1.000000
vt 0.000000 0.000000
vt 1.000000 0.000000
vt 1.000000 1.000000
vt 0.000000 1.000000
vt 1.000000 1.000000
vt 0.000000 1.000000
vt 1.000000 0.000000
vt 1.000000 1.000000
vt 1.000000 1.000000
vt 0.000000 1.000000
vt 1.000000 0.000000
vt 1.000000 1.000000
vt 0.000000 0.000000
vt 0.000000 1.000000
vt 0.000000 1.000000
vt 1.000000 0.000000
vt 1.000000 1.000000
vt 1.000000 0.000000
vt 0.000000 0.000000
vt 1.000000 0.000000
vt 0.000000 0.000000
vt 1.000000 0.000000
vt 0.000000 0.000000
vt 1.000000 1.000000
vt 1.000000 1.000000
vt 1.000000 0.000000
vt 1.000000 1.000000
vt 1.000000 0.000000
vt 0.000000 1.000000
vt 0.000000 0.000000
vt 1.000000 1.000000
vt 0.000000 1.000000
vt 1.000000 0.000000
vt 1.000000 1.000000
vt 1.000000 0.000000
vt 1.000000 0.000000
vt 1.000000 1.000000
vt 1.000000 0.000000
vt 1.000000 1.000000
vt 1.000000 1.000000
vt 1.000000 0.000000
vt 1.000000 1.000000
vt 1.000000 0.000000
vt 1.000000 0.000000
s 0
usemtl oak_leaves
f 1/1/1 2/2/1 4/6/1 3/5/1
f 2/3/1 6/12/1 7/14/1 4/7/1
f 5/10/2 8/19/2 7/15/2 6/13/2
f 11/24/2 12/27/2 8/18/2 5/11/2
f 13/29/3 14/31/3 10/22/3 9/21/3
f 14/32/3 15/35/3 11/25/3 10/23/3
f 15/36/2 16/39/2 12/26/2 11/25/2
f 14/33/4 17/42/4 16/38/4 15/37/4
f 18/45/3 19/47/3 14/34/3 13/30/3
f 19/48/2 21/52/2 17/43/2 14/34/2
f 18/46/4 20/50/4 21/51/4 19/49/4
f 3/4/3 4/8/3 23/56/3 22/53/3
f 3/5/5 22/54/5 25/61/5 24/60/5
f 22/55/1 23/57/1 26/63/1 25/62/1
f 4/9/3 7/15/3 27/66/3 23/58/3
f 23/59/1 27/65/1 28/68/1 26/64/1
f 7/16/2 29/70/2 28/67/2 27/66/2
f 8/19/3 30/71/3 31/76/3 7/16/3
f 7/17/1 31/75/1 32/77/1 29/69/1
f 30/73/2 33/82/2 32/78/2 31/76/2
f 12/27/3 34/83/3 30/72/3 8/20/3
f 34/84/3 35/87/3 36/91/3 30/73/3
f 30/74/1 36/90/1 37/94/1 33/81/1
f 35/88/2 38/95/2 37/92/2 36/91/2
f 34/85/4 39/99/4 38/96/4 35/89/4
f 16/39/3 40/102/3 34/86/3 12/28/3
f 40/103/2 41/107/2 39/100/2 34/86/2
f 16/40/4 42/109/4 41/105/4 40/104/4
f 21/52/3 43/113/3 16/41/3 17/44/3
f 43/114/2 44/115/2 42/110/2 16/41/2
f 29/69/2 46/119/2 45/117/2 28/68/2
f 29/70/1 32/78/1 48/123/1 46/120/1
f 49/127/6 46/119/6 48/124/6 50/129/6
f 33/82/3 37/92/3 51/134/3 32/79/3
f 32/80/1 51/133/1 52/135/1 48/125/1
f 50/130/6 48/126/6 52/136/6 53/139/6
f 37/93/2 53/137/2 52/136/2 51/134/2
f 38/97/2 55/141/2 53/138/2 37/94/2
f 42/111/4 56/145/4 57/149/4 41/106/4
f 41/107/3 58/153/3 38/98/3 39/101/3
f 57/151/6 59/156/6 55/142/6 60/159/6
f 58/154/2 60/160/2 55/142/2 38/98/2
f 41/108/4 57/150/4 60/161/4 58/155/4
f 44/116/2 63/165/2 56/146/2 42/112/2
f 64/168/6 65/171/6 66/172/6 67/175/6
f 46/120/2 69/180/2 68/178/2 45/118/2
f 49/127/2 71/187/2 69/181/2 46/121/2
f 54/140/5 47/122/5 70/184/5 72/190/5
f 49/128/1 50/131/1 73/193/1 71/188/1
f 74/198/6 71/187/6 73/194/6 75/200/6
f 50/132/1 53/138/1 76/204/1 73/195/1
f 75/201/6 73/196/6 76/205/6 77/206/6
f 55/143/2 77/207/2 76/205/2 53/139/2
f 59/157/4 75/202/4 77/208/4 55/144/4
f 79/213/6 74/197/6 75/203/6 80/215/6
f 57/151/2 80/216/2 75/203/2 59/158/2
f 56/147/4 79/211/4 80/217/4 57/152/4
f 81/218/6 78/209/6 82/220/6 83/222/6
f 61/162/4 81/219/4 83/223/4 62/163/4
f 63/166/2 84/226/2 79/212/2 56/148/2
f 62/164/4 83/224/4 84/227/4 63/167/4
f 67/176/5 66/173/5 86/234/5 85/233/5
f 66/174/1 68/178/1 87/237/1 86/235/1
f 85/230/6 86/236/6 87/238/6 88/239/6
f 69/182/2 88/240/2 87/238/2 68/179/2
f 70/185/5 64/169/5 90/245/5 89/242/5
f 64/170/1 67/177/1 85/231/1 90/246/1
f 89/243/6 90/247/6 85/232/6 91/248/6
f 91/249/6 85/233/6 88/241/6 92/250/6
f 71/188/2 92/251/2 88/241/2 69/183/2
f 72/191/5 70/186/5 89/244/5 93/253/5
f 74/198/2 94/255/2 92/252/2 71/189/2
f 78/210/5 72/192/5 93/254/5 95/257/5
f 78/210/4 95/257/4 96/258/4 82/221/4
f 79/213/2 97/260/2 94/256/2 74/199/2
f 83/225/5 82/221/5 96/258/5 98/263/5
f 98/262/6 96/259/6 97/261/6 99/264/6
f 84/228/2 99/265/2 97/261/2 79/214/2
f 83/225/4 98/263/4 99/266/4 84/229/4
f 101/270/3 102/272/3 103/277/3 100/267/3
f 101/271/5 100/268/5 105/280/5 104/278/5
f 100/269/1 103/276/1 106/283/1 105/281/1
f 102/274/2 107/287/2 106/284/2 103/277/2
f 108/288/3 109/289/3 102/273/3 101/271/3
f 109/290/3 110/291/3 111/295/3 102/274/3
f 102/275/1 111/294/1 112/298/1 107/286/1
f 110/292/2 113/301/2 112/296/2 111/295/2
f 114/302/2 115/305/2 113/299/2 110/293/2
f 118/310/2 119/313/2 115/304/2 114/303/2
f 117/308/4 120/316/4 119/312/4 118/311/4
f 121/319/3 122/321/3 117/309/3 116/307/3
f 122/322/2 124/326/2 120/317/2 117/309/2
f 121/320/4 123/324/4 124/325/4 122/323/4
f 104/279/5 105/282/5 126/328/5 125/327/5
f 107/287/3 112/296/3 127/329/3 106/285/3
f 112/297/2 129/334/2 128/330/2 127/329/2
f 113/300/2 130/336/2 129/332/2 112/298/2
f 115/305/3 132/338/3 133/342/3 113/300/3
f 113/301/1 133/343/1 134/346/1 130/335/1
f 132/339/3 135/350/3 136/354/3 133/344/3
f 133/345/1 136/353/1 137/357/1 134/347/1
f 135/351/2 138/358/2 137/355/2 136/354/2
f 132/340/4 139/362/4 138/359/4 135/352/4
f 119/313/3 141/367/3 132/341/3 115/306/3
f 141/368/2 142/372/2 139/363/2 132/341/2
f 119/314/4 143/374/4 142/370/4 141/369/4
f 124/326/3 145/379/3 119/315/3 120/318/3
f 145/380/2 146/381/2 143/375/2 119/315/2
f 129/333/2 148/386/2 147/383/2 128/331/2
f 130/336/3 134/348/3 149/387/3 129/333/3
f 129/334/1 149/388/1 150/394/1 148/385/1
f 134/349/3 137/355/3 151/396/3 149/389/3
f 149/390/1 151/395/1 152/397/1 150/391/1
f 153/399/6 150/392/6 152/398/6 154/403/6
f 137/356/2 154/401/2 152/398/2 151/396/2
f 138/360/2 156/405/2 154/402/2 137/357/2
f 140/365/5 131/337/5 155/404/5 157/409/5
f 143/376/4 158/412/4 159/416/4 142/371/4
f 142/372/3 160/420/3 138/361/3 139/364/3
f 159/418/6 161/423/6 156/406/6 162/426/6
f 160/421/2 162/427/2 156/406/2 138/361/2
f 142/373/4 159/417/4 162/428/4 160/422/4
f 144/378/5 140/366/5 157/410/5 163/429/5
f 146/382/2 164/431/2 158/413/2 143/377/2
f 148/385/2 168/438/2 167/436/2 147/384/2
f 148/386/1 150/393/1 170/442/1 168/439/1
f 171/445/6 168/438/6 170/443/6 172/447/6
f 153/399/2 172/450/2 170/443/2 150/394/2
f 173/452/6 171/444/6 172/448/6 174/454/6
f 153/400/1 154/402/1 175/458/1 172/449/1
f 174/455/6 172/450/6 175/459/6 176/460/6
f 156/407/2 176/461/2 175/459/2 154/403/2
f 161/424/4 174/456/4 176/462/4 156/408/4
f 178/467/6 173/451/6 174/457/6 179/469/6
f 159/418/2 179/470/2 174/457/2 161/425/2
f 158/414/4 178/465/4 179/471/4 159/419/4
f 163/430/5 157/411/5 177/463/5 180/472/5
f 164/432/2 181/474/2 178/466/2 158/415/2
f 165/433/5 166/435/5 183/479/5 182/476/5
f 182/477/6 183/480/6 184/481/6 185/483/6
f 185/484/6 184/482/6 186/485/6 187/486/6
f 168/439/2 187/487/2 186/485/2 167/437/2
f 169/441/5 165/434/5 182/478/5 188/489/5
f 171/445/2 189/490/2 187/488/2 168/440/2
f 173/452/2 190/492/2 189/491/2 171/446/2
f 178/467/2 192/495/2 190/493/2 173/453/2
f 180/473/5 177/464/5 191/494/5 193/497/5
f 181/475/2 194/498/2 192/496/2 178/468/2
