# Blender 3.3.1
# www.blender.org
mtllib Oak_Log.mtl
o Oak_Log
v -5.000000 7.000000 -2.999999
v -5.000000 5.000000 -2.999999
v -5.000000 5.000000 -1.999999
v -5.000000 7.000000 -1.999999
v -4.000000 7.000000 -2.999999
v -4.000000 5.000000 -2.999999
v -5.000000 6.000000 -1.999999
v -5.000000 6.000000 -2.999999
v -4.000000 6.000000 -2.999999
v -4.000000 5.000000 -1.999999
v -4.000000 6.000000 -1.999999
v -4.000000 7.000000 -1.999999
v 3.000000 4.000000 2.000001
v 3.000000 6.000000 2.000001
v 3.000000 5.000000 2.000001
v 3.000000 5.000000 3.000001
v 3.000000 6.000000 3.000001
v 3.000000 4.000000 3.000001
v 4.000000 4.000000 2.000001
v 4.000000 6.000000 2.000001
v 4.000000 5.000000 2.000001
v 4.000000 4.000000 3.000001
v 4.000000 5.000000 3.000001
v 4.000000 6.000000 3.000001
vn -1.0000 -0.0000 -0.0000
vn -0.0000 -0.0000 -1.0000
vn 1.0000 -0.0000 -0.0000
vn -0.0000 -0.0000 1.0000
vt 0.000000 1.000000
vt 1.000000 1.000000
vt 0.000000 0.000000
vt 1.000000 0.000000
vt 1.000000 0.000000
vt 0.000000 0.000000
vt 1.000000 1.000000
vt 0.000000 1.000000
vt 0.000000 1.000000
vt 1.000000 1.000000
vt 0.000000 0.000000
vt 1.000000 0.000000
vt 1.000000 1.000000
vt 0.000000 1.000000
vt 1.000000 0.000000
vt 0.000000 0.000000
vt 0.000000 1.000000
vt 1.000000 1.000000
vt 0.000000 0.000000
vt 1.000000 0.000000
vt 0.000000 1.000000
vt 1.000000 1.000000
vt 0.000000 0.000000
vt 1.000000 0.000000
vt 0.000000 0.000000
vt 1.000000 0.000000
vt 0.000000 1.000000
vt 1.000000 1.000000
vt 0.000000 0.000000
vt 1.000000 0.000000
vt 0.000000 1.000000
vt 1.000000 1.000000
vt 1.000000 0.000000
vt 0.000000 1.000000
vt 1.000000 1.000000
vt 1.000000 1.000000
vt 0.000000 0.000000
vt 1.000000 0.000000
vt 0.000000 1.000000
vt 1.000000 0.000000
vt 0.000000 0.000000
vt 1.000000 1.000000
vt 0.000000 1.000000
vt 0.000000 0.000000
vt 0.000000 0.000000
vt 1.000000 0.000000
vt 0.000000 1.000000
vt 1.000000 1.000000
vt 0.000000 1.000000
vt 1.000000 1.000000
vt 0.000000 0.000000
vt 1.000000 0.000000
vt 0.000000 0.000000
vt 1.000000 0.000000
vt 0.000000 1.000000
vt 1.000000 1.000000
vt 0.000000 0.000000
vt 1.000000 0.000000
vt 0.000000 1.000000
vt 1.000000 1.000000
s 0
usemtl oak_log
f 3/5/1 7/13/1 8/17/1 2/3/1
f 2/4/2 8/18/2 9/21/2 6/11/2
f 10/25/3 6/12/3 9/22/3 11/27/3
f 3/6/4 10/26/4 11/28/4 7/14/4
f 7/15/1 4/7/1 1/1/1 8/19/1
f 8/20/2 1/2/2 5/9/2 9/23/2
f 11/29/3 9/24/3 5/10/3 12/31/3
f 7/16/4 11/30/4 12/32/4 4/8/4
f 13/33/2 15/36/2 21/49/2 19/45/2
f 22/53/3 19/46/3 21/50/3 23/55/3
f 18/44/4 22/54/4 23/56/4 16/39/4
f 16/40/1 17/42/1 14/34/1 15/37/1
f 15/38/2 14/35/2 20/47/2 21/51/2
f 23/57/3 21/52/3 20/48/3 24/59/3
f 16/41/4 23/58/4 24/60/4 17/43/4
