# Blender 3.3.1
# www.blender.org
mtllib Stone_4.mtl
o Stone_4
v -17.000000 0.000002 -15.000000
v -17.000000 0.999999 8.000000
v -17.000000 4.000002 -14.999999
v -17.000000 0.000001 -4.000000
v -17.000000 5.000000 4.000001
v -17.000000 4.000000 -3.999999
v -17.000000 0.000000 0.000000
v -17.000000 4.000000 0.000001
v -17.000000 0.999999 4.000000
v -17.000000 -0.000001 4.000000
v -17.000000 3.999999 4.000000
v -17.000000 -0.000002 12.000000
v -17.000000 3.999998 12.000001
v -17.000000 -0.000003 16.000000
v -17.000000 3.999997 16.000000
v -13.000000 0.000002 -15.000000
v -13.000000 4.000002 -14.999999
v -9.000000 0.000002 -15.000000
v -9.000000 4.000002 -14.999999
v -17.000000 4.999999 8.000001
v -17.000000 0.999998 12.000000
v -17.000000 4.999998 12.000001
vn -1.0000 -0.0000 -0.0000
vn -0.0000 -0.0000 -1.0000
vt 1.000000 0.000000
vt 0.000000 0.000000
vt 1.000000 0.000000
vt 1.000000 1.000000
vt 0.000000 0.000000
vt 0.000000 1.000000
vt 0.000000 1.000000
vt 1.000000 0.000000
vt 0.000000 0.000000
vt 1.000000 1.000000
vt 0.000000 1.000000
vt 0.000000 0.000000
vt 1.000000 0.000000
vt 1.000000 1.000000
vt 0.000000 0.000000
vt 0.000000 1.000000
vt 1.000000 0.000000
vt 1.000000 1.000000
vt 0.000000 0.000000
vt 1.000000 0.000000
vt 0.000000 1.000000
vt 1.000000 1.000000
vt 0.000000 0.000000
vt 0.000000 1.000000
vt 0.000000 1.000000
vt 1.000000 1.000000
vt 1.000000 0.000000
vt 1.000000 1.000000
s 0
usemtl stone
f 6/7/1 4/5/1 7/8/1 8/10/1
f 7/9/1 10/13/1 11/14/1 8/11/1
f 12/15/1 14/17/1 15/18/1 13/16/1
f 17/21/2 16/19/2 1/1/2 3/4/2
f 16/20/2 17/22/2 19/24/2 18/23/2
f 20/25/1 2/2/1 21/27/1 22/28/1
f 2/3/1 20/26/1 5/6/1 9/12/1
