# Blender 3.3.1
# www.blender.org
mtllib Stone_4.mtl
o Stone_4
v -17.000000 0.000002 -15.000000
v -17.000000 3.000002 -14.999999
v -17.000000 4.000002 -14.999999
v -17.000000 0.000001 -4.000000
v -17.000000 3.000001 -4.000000
v -17.000000 4.000000 -3.999999
v -17.000000 4.000000 -0.999999
v -17.000000 0.000000 0.000000
v -17.000000 4.000000 0.000001
v -17.000000 4.000000 2.000001
v -17.000000 -0.000001 4.000000
v -17.000000 0.999999 4.000000
v -17.000000 3.999999 4.000000
v -17.000000 5.000000 4.000001
v -17.000000 0.999999 5.000000
v -17.000000 4.999999 5.000001
v -17.000000 0.999999 6.000000
v -17.000000 4.999999 6.000001
v -17.000000 4.999999 7.000001
v -17.000000 0.999999 8.000000
v -17.000000 4.999999 8.000001
v -17.000000 4.999999 9.000001
v -17.000000 0.999998 10.000000
v -17.000000 4.999999 10.000001
v -17.000000 0.999998 11.000000
v -17.000000 4.999998 11.000001
v -17.000000 -0.000002 12.000000
v -17.000000 0.999998 12.000000
v -17.000000 3.999998 12.000001
v -17.000000 4.999998 12.000001
v -17.000000 3.999998 14.000001
v -17.000000 3.999998 15.000001
v -17.000000 -0.000003 16.000000
v -17.000000 2.999997 16.000000
v -17.000000 3.999997 16.000000
v -15.000000 4.000002 -14.999999
v -13.000000 0.000002 -15.000000
v -13.000000 4.000002 -14.999999
v -12.000000 4.000002 -14.999999
v -11.000000 4.000002 -14.999999
v -10.000000 4.000002 -14.999999
v -9.000000 0.000002 -15.000000
v -9.000000 2.000002 -15.000000
v -9.000000 3.000002 -14.999999
v -9.000000 4.000002 -14.999999
vn -1.0000 -0.0000 -0.0000
vn -0.0000 -0.0000 -1.0000
vt 1.000000 0.000000
vt 1.000000 0.000000
vt 1.000000 1.000000
vt 0.000000 0.000000
vt 0.000000 1.000000
vt 0.000000 1.000000
vt 1.000000 1.000000
vt 1.000000 0.000000
vt 0.000000 0.000000
vt 1.000000 1.000000
vt 0.000000 1.000000
vt 1.000000 1.000000
vt 1.000000 0.000000
vt 1.000000 0.000000
vt 0.000000 0.000000
vt 1.000000 1.000000
vt 0.000000 1.000000
vt 0.000000 1.000000
vt 0.000000 0.000000
vt 1.000000 1.000000
vt 0.000000 0.000000
vt 1.000000 1.000000
vt 1.000000 1.000000
vt 0.000000 0.000000
vt 1.000000 0.000000
vt 0.000000 1.000000
vt 1.000000 1.000000
vt 1.000000 1.000000
vt 0.000000 0.000000
vt 1.000000 1.000000
vt 0.000000 0.000000
vt 1.000000 1.000000
vt 0.000000 0.000000
vt 1.000000 0.000000
vt 0.000000 1.000000
vt 1.000000 0.000000
vt 0.000000 1.000000
vt 1.000000 1.000000
vt 1.000000 1.000000
vt 1.000000 1.000000
vt 1.000000 0.000000
vt 1.000000 0.000000
vt 1.000000 1.000000
vt 1.000000 1.000000
vt 0.000000 0.000000
vt 1.000000 0.000000
vt 0.000000 1.000000
vt 1.000000 1.000000
vt 1.000000 1.000000
vt 1.000000 1.000000
vt 1.000000 1.000000
vt 0.000000 0.000000
vt 0.000000 1.000000
vt 0.000000 1.000000
vt 0.000000 1.000000
s 0
usemtl stone
f 6/6/1 5/5/1 4/4/1 8/8/1 9/10/1 7/7/1
f 8/9/1 11/13/1 12/14/1 13/16/1 10/12/1 9/11/1
f 24/30/1 22/28/1 21/26/1 20/24/1 23/29/1 25/31/1 28/34/1 29/36/1 30/38/1 26/32/1
f 28/35/1 27/33/1 33/41/1 34/42/1 35/43/1 32/40/1 31/39/1 29/37/1
f 20/25/1 21/27/1 19/23/1 18/22/1 16/20/1 14/18/1 13/17/1 12/15/1 15/19/1 17/21/1
f 36/44/2 38/47/2 37/45/2 1/1/2 2/2/2 3/3/2
f 37/46/2 38/48/2 39/49/2 40/50/2 41/51/2 45/55/2 44/54/2 43/53/2 42/52/2
