# Blender 3.3.1
# www.blender.org
mtllib Stone.mtl
o Stone
v -17.000000 6.000001 -9.999999
v -17.000000 7.000001 -9.999999
v -17.000000 6.000001 -8.999999
v -17.000000 7.000001 -8.999999
v -17.000000 4.000001 -8.000000
v -17.000000 5.000001 -7.999999
v -17.000000 4.000001 -7.000000
v -17.000000 5.000001 -6.999999
v -17.000000 6.000001 -6.999999
v -17.000000 7.000001 -6.999999
v -17.000000 6.000001 -5.999999
v -17.000000 7.000001 -5.999999
v -17.000000 6.000001 -4.999999
v -17.000000 7.000001 -4.999999
v -17.000000 6.000000 -3.999999
v -17.000000 7.000000 -3.999999
v -17.000000 -0.000001 4.000000
v -17.000000 0.999999 4.000000
v -17.000000 -0.000001 5.000000
v -17.000000 0.999999 5.000000
v -17.000000 4.999999 5.000001
v -17.000000 5.999999 5.000001
v -17.000000 -0.000001 6.000000
v -17.000000 0.999999 6.000000
v -17.000000 4.999999 6.000001
v -17.000000 5.999999 6.000001
v -17.000000 4.999999 7.000001
v -17.000000 5.999999 7.000001
v -17.000000 4.999999 8.000001
v -17.000000 5.999999 8.000001
v -17.000000 4.999999 9.000001
v -17.000000 5.999999 9.000001
v -17.000000 -0.000002 10.000000
v -17.000000 0.999998 10.000000
v -17.000000 4.999999 10.000001
v -17.000000 5.999999 10.000001
v -17.000000 -0.000002 11.000000
v -17.000000 0.999998 11.000000
v -17.000000 4.999998 11.000001
v -17.000000 5.999998 11.000001
v -17.000000 -0.000002 12.000000
v -17.000000 0.999998 12.000000
v -17.000000 4.999998 12.000001
v -17.000000 5.999998 12.000001
v -17.000000 3.999998 14.000001
v -17.000000 4.999998 14.000001
v -17.000000 5.999998 14.000001
v -17.000000 3.999998 15.000001
v -17.000000 4.999998 15.000001
v -17.000000 5.999998 15.000001
v -17.000000 2.999997 16.000000
v -16.000000 2.999997 16.000000
v -17.000000 3.999997 16.000000
v -16.000000 3.999997 16.000000
v -17.000000 4.999998 16.000000
v -16.000000 4.999998 16.000000
v -15.000000 2.999997 16.000000
v -15.000000 3.999997 16.000000
v -15.000000 4.999998 16.000000
v -14.000000 2.999997 16.000000
v -14.000000 3.999997 16.000000
v -14.000000 4.999998 16.000000
v -13.000000 4.000002 -14.999999
v -13.000000 5.000002 -14.999999
v -13.000000 2.999997 16.000000
v -13.000000 3.999997 16.000000
v -12.000000 4.000002 -14.999999
v -12.000000 5.000002 -14.999999
v -12.000000 2.999997 16.000000
v -12.000000 3.999997 16.000000
v -11.000000 4.000002 -14.999999
v -11.000000 5.000002 -14.999999
v -11.000000 2.999997 16.000000
v -11.000000 3.999997 16.000000
v -10.000000 4.000002 -14.999999
v -10.000000 5.000002 -14.999999
v -9.000000 2.000002 -15.000000
v -9.000000 3.000002 -14.999999
v -8.000000 2.000002 -15.000000
v -8.000000 3.000002 -14.999999
v -7.000000 2.000002 -15.000000
v -7.000000 3.000002 -14.999999
v -5.000000 0.000002 -15.000000
v -5.000000 1.000003 -15.000000
v -4.000000 0.000002 -15.000000
v -4.000000 1.000003 -15.000000
v -3.000000 0.000002 -15.000000
v -3.000000 1.000003 -15.000000
v -2.000000 1.999997 16.000000
v -2.000000 2.999997 16.000000
v -1.000000 1.999997 16.000000
v -1.000000 2.999997 16.000000
v 0.000000 1.999997 16.000000
v 0.000000 2.999997 16.000000
v 2.000000 1.999997 16.000000
v 2.000000 2.999997 16.000000
v 3.000000 1.999997 16.000000
v 3.000000 2.999997 16.000000
v 4.000000 2.000001 -6.000000
v 4.000000 2.000001 -5.000000
v 5.000000 0.000002 -15.000000
v 5.000000 1.000003 -15.000000
v 5.000000 2.000001 -6.000000
v 5.000000 2.000001 -5.000000
v 6.000000 0.000002 -15.000000
v 6.000000 1.000003 -15.000000
v 6.000000 2.999997 16.000000
v 6.000000 3.999997 16.000000
v 7.000000 0.000002 -15.000000
v 7.000000 1.000003 -15.000000
v 7.000000 2.999997 16.000000
v 7.000000 3.999997 16.000000
v 8.000000 0.000002 -15.000000
v 8.000000 1.000003 -15.000000
v 8.000000 2.999997 16.000000
v 8.000000 3.999997 16.000000
v 9.000000 0.000002 -15.000000
v 9.000000 1.000003 -15.000000
v 10.000000 0.000002 -15.000000
v 10.000000 1.000003 -15.000000
v 10.000000 1.999997 16.000000
v 10.000000 2.999997 16.000000
v 10.000000 3.999997 16.000000
v 11.000000 0.000002 -15.000000
v 11.000000 1.000003 -15.000000
v 11.000000 1.999997 16.000000
v 11.000000 2.999997 16.000000
v 11.000000 3.999997 16.000000
v 12.000000 0.000002 -15.000000
v 12.000000 1.000003 -15.000000
v 12.000000 1.999997 16.000000
v 12.000000 2.999997 16.000000
v 13.000000 0.000002 -15.000000
v 13.000000 1.000003 -15.000000
v 14.000000 0.000002 -15.000000
v 14.000000 1.000003 -15.000000
v 15.000000 0.000002 -15.000000
v 15.000000 1.000003 -15.000000
v 16.000000 0.000002 -15.000000
v 16.000000 1.000003 -15.000000
v 16.000000 -0.000003 16.000000
v 16.000000 0.999997 16.000000
v 16.000000 1.999997 16.000000
v 17.000000 0.000002 -14.000000
v 17.000000 0.000002 -15.000000
v 17.000000 1.000003 -15.000000
v 17.000000 1.000002 -14.000000
v 17.000000 0.000002 -13.000000
v 17.000000 1.000002 -13.000000
v 17.000000 0.000002 -12.000000
v 17.000000 1.000002 -12.000000
v 17.000000 0.000002 -11.000000
v 17.000000 1.000002 -11.000000
v 17.000000 0.000002 -10.000000
v 17.000000 1.000002 -10.000000
v 17.000000 0.000000 -2.000000
v 17.000000 1.000000 -2.000000
v 17.000000 2.000000 -2.000000
v 17.000000 0.000000 -1.000000
v 17.000000 1.000000 -1.000000
v 17.000000 2.000000 -1.000000
v 17.000000 0.999999 6.000000
v 17.000000 1.999999 6.000000
v 17.000000 0.999999 7.000000
v 17.000000 1.999999 7.000000
v 17.000000 -0.000003 16.000000
v 17.000000 0.999997 16.000000
v 17.000000 1.999997 16.000000
vn -1.0000 -0.0000 -0.0000
vn -0.0000 -0.0000 1.0000
vn -0.0000 -0.0000 -1.0000
vn -0.0000 1.0000 -0.0000
vn 1.0000 -0.0000 -0.0000
vt 0.000000 0.000000
vt 0.000000 1.000000
vt 1.000000 0.000000
vt 1.000000 1.000000
vt 0.000000 0.000000
vt 0.000000 1.000000
vt 1.000000 0.000000
vt 1.000000 1.000000
vt 0.000000 0.000000
vt 0.000000 1.000000
vt 1.000000 0.000000
vt 0.000000 0.000000
vt 1.000000 1.000000
vt 0.000000 1.000000
vt 1.000000 0.000000
vt 0.000000 0.000000
vt 1.000000 1.000000
vt 0.000000 1.000000
vt 1.000000 0.000000
vt 1.000000 1.000000
vt 0.000000 0.000000
vt 0.000000 1.000000
vt 1.000000 0.000000
vt 0.000000 0.000000
vt 1.000000 1.000000
vt 0.000000 1.000000
vt 0.000000 0.000000
vt 0.000000 1.000000
vt 1.000000 0.000000
vt 1.000000 1.000000
vt 1.000000 0.000000
vt 0.000000 0.000000
vt 1.000000 1.000000
vt 0.000000 1.000000
vt 1.000000 0.000000
vt 0.000000 0.000000
vt 1.000000 1.000000
vt 0.000000 1.000000
vt 1.000000 0.000000
vt 0.000000 0.000000
vt 1.000000 1.000000
vt 0.000000 1.000000
vt 1.000000 0.000000
vt 0.000000 0.000000
vt 1.000000 1.000000
vt 0.000000 1.000000
vt 0.000000 0.000000
vt 0.000000 1.000000
vt 1.000000 0.000000
vt 0.000000 0.000000
vt 1.000000 1.000000
vt 0.000000 1.000000
vt 1.000000 0.000000
vt 0.000000 0.000000
vt 1.000000 1.000000
vt 0.000000 1.000000
vt 1.000000 0.000000
vt 0.000000 0.000000
vt 1.000000 1.000000
vt 0.000000 1.000000
vt 1.000000 0.000000
vt 1.000000 1.000000
vt 1.000000 0.000000
vt 1.000000 1.000000
vt 0.000000 0.000000
vt 0.000000 1.000000
vt 0.000000 0.000000
vt 0.000000 1.000000
vt 1.000000 0.000000
vt 0.000000 0.000000
vt 1.000000 1.000000
vt 1.000000 0.000000
vt 0.000000 1.000000
vt 1.000000 1.000000
vt 0.000000 0.000000
vt 1.000000 0.000000
vt 0.000000 0.000000
vt 0.000000 1.000000
vt 1.000000 0.000000
vt 0.000000 0.000000
vt 1.000000 1.000000
vt 1.000000 0.000000
vt 0.000000 1.000000
vt 1.000000 1.000000
vt 0.000000 1.000000
vt 1.000000 1.000000
vt 1.000000 0.000000
vt 0.000000 0.000000
vt 1.000000 1.000000
vt 0.000000 1.000000
vt 0.000000 0.000000
vt 0.000000 1.000000
vt 1.000000 0.000000
vt 0.000000 0.000000
vt 1.000000 1.000000
vt 1.000000 0.000000
vt 0.000000 1.000000
vt 1.000000 1.000000
vt 1.000000 0.000000
vt 1.000000 1.000000
vt 1.000000 0.000000
vt 1.000000 1.000000
vt 0.000000 0.000000
vt 1.000000 0.000000
vt 0.000000 1.000000
vt 1.000000 1.000000
vt 0.000000 0.000000
vt 0.000000 1.000000
vt 0.000000 0.000000
vt 1.000000 0.000000
vt 0.000000 1.000000
vt 1.000000 1.000000
vt 1.000000 0.000000
vt 1.000000 1.000000
vt 0.000000 0.000000
vt 0.000000 1.000000
vt 1.000000 0.000000
vt 1.000000 1.000000
vt 0.000000 0.000000
vt 1.000000 0.000000
vt 0.000000 1.000000
vt 1.000000 1.000000
vt 0.000000 0.000000
vt 0.000000 1.000000
vt 1.000000 0.000000
vt 1.000000 1.000000
vt 0.000000 0.000000
vt 1.000000 0.000000
vt 0.000000 1.000000
vt 1.000000 1.000000
vt 0.000000 0.000000
vt 0.000000 1.000000
vt 0.000000 0.000000
vt 0.000000 1.000000
vt 1.000000 0.000000
vt 0.000000 0.000000
vt 1.000000 1.000000
vt 0.000000 1.000000
vt 1.000000 0.000000
vt 1.000000 1.000000
vt 0.000000 0.000000
vt 0.000000 1.000000
vt 1.000000 0.000000
vt 1.000000 1.000000
vt 0.000000 1.000000
vt 0.000000 0.000000
vt 1.000000 0.000000
vt 1.000000 1.000000
vt 1.000000 1.000000
vt 1.000000 0.000000
vt 0.000000 0.000000
vt 1.000000 0.000000
vt 0.000000 1.000000
vt 1.000000 1.000000
vt 0.000000 0.000000
vt 0.000000 1.000000
vt 0.000000 0.000000
vt 1.000000 0.000000
vt 0.000000 1.000000
vt 1.000000 1.000000
vt 1.000000 0.000000
vt 0.000000 0.000000
vt 1.000000 1.000000
vt 0.000000 1.000000
vt 0.000000 0.000000
vt 1.000000 0.000000
vt 0.000000 1.000000
vt 1.000000 1.000000
vt 1.000000 0.000000
vt 1.000000 1.000000
vt 0.000000 0.000000
vt 1.000000 0.000000
vt 0.000000 1.000000
vt 1.000000 1.000000
vt 0.000000 0.000000
vt 1.000000 0.000000
vt 0.000000 1.000000
vt 1.000000 1.000000
vt 0.000000 0.000000
vt 0.000000 1.000000
vt 0.000000 0.000000
vt 0.000000 1.000000
vt 0.000000 0.000000
vt 1.000000 0.000000
vt 0.000000 1.000000
vt 1.000000 1.000000
vt 1.000000 0.000000
vt 0.000000 0.000000
vt 1.000000 1.000000
vt 1.000000 0.000000
vt 0.000000 1.000000
vt 1.000000 1.000000
vt 0.000000 0.000000
vt 1.000000 0.000000
vt 0.000000 1.000000
vt 1.000000 1.000000
vt 1.000000 0.000000
vt 1.000000 1.000000
vt 0.000000 0.000000
vt 1.000000 0.000000
vt 0.000000 1.000000
vt 1.000000 1.000000
vt 0.000000 0.000000
vt 1.000000 0.000000
vt 0.000000 1.000000
vt 1.000000 1.000000
vt 0.000000 0.000000
vt 1.000000 0.000000
vt 0.000000 1.000000
vt 1.000000 1.000000
vt 0.000000 0.000000
vt 1.000000 0.000000
vt 0.000000 1.000000
vt 1.000000 1.000000
vt 0.000000 0.000000
vt 0.000000 1.000000
vt 0.000000 0.000000
vt 0.000000 1.000000
vt 0.000000 0.000000
vt 1.000000 0.000000
vt 0.000000 0.000000
vt 1.000000 0.000000
vt 0.000000 1.000000
vt 1.000000 1.000000
vt 0.000000 1.000000
vt 1.000000 1.000000
vt 0.000000 0.000000
vt 1.000000 0.000000
vt 0.000000 1.000000
vt 1.000000 1.000000
vt 0.000000 0.000000
vt 1.000000 0.000000
vt 0.000000 1.000000
vt 1.000000 1.000000
vt 0.000000 0.000000
vt 1.000000 0.000000
vt 0.000000 1.000000
vt 1.000000 1.000000
vt 0.000000 0.000000
vt 0.000000 1.000000
vt 1.000000 0.000000
vt 1.000000 1.000000
vt 1.000000 0.000000
vt 1.000000 1.000000
vt 0.000000 0.000000
vt 0.000000 1.000000
vt 0.000000 0.000000
vt 0.000000 1.000000
vt 1.000000 0.000000
vt 1.000000 1.000000
vt 0.000000 0.000000
vt 0.000000 1.000000
vt 1.000000 0.000000
vt 1.000000 1.000000
vt 1.000000 0.000000
vt 1.000000 1.000000
s 0
usemtl stone
f 3/3/1 4/4/1 2/2/1 1/1/1
f 7/7/1 8/8/1 6/6/1 5/5/1
f 11/11/1 12/13/1 10/10/1 9/9/1
f 13/15/1 14/17/1 12/14/1 11/12/1
f 15/19/1 16/20/1 14/18/1 13/16/1
f 19/23/1 20/25/1 18/22/1 17/21/1
f 23/29/1 24/30/1 20/26/1 19/24/1
f 25/31/1 26/33/1 22/28/1 21/27/1
f 27/35/1 28/37/1 26/34/1 25/32/1
f 29/39/1 30/41/1 28/38/1 27/36/1
f 31/43/1 32/45/1 30/42/1 29/40/1
f 35/49/1 36/51/1 32/46/1 31/44/1
f 37/53/1 38/55/1 34/48/1 33/47/1
f 39/57/1 40/59/1 36/52/1 35/50/1
f 41/61/1 42/62/1 38/56/1 37/54/1
f 43/63/1 44/64/1 40/60/1 39/58/1
f 48/69/1 49/71/1 46/66/1 45/65/1
f 49/72/1 50/74/1 47/68/1 46/67/1
f 51/75/2 52/76/2 54/81/2 53/78/2
f 53/79/1 55/84/1 49/73/1 48/70/1
f 53/80/2 54/82/2 56/86/2 55/85/2
f 52/77/2 57/87/2 58/89/2 54/83/2
f 57/88/2 60/93/2 61/95/2 58/90/2
f 58/91/2 61/96/2 62/98/2 59/92/2
f 60/94/2 65/101/2 66/102/2 61/97/2
f 63/99/3 64/100/3 68/105/3 67/103/3
f 67/104/3 68/106/3 72/111/3 71/109/3
f 69/107/2 73/113/2 74/114/2 70/108/2
f 71/110/3 72/112/3 76/116/3 75/115/3
f 77/117/3 78/118/3 80/121/3 79/119/3
f 79/120/3 80/122/3 82/124/3 81/123/3
f 83/125/3 84/126/3 86/129/3 85/127/3
f 85/128/3 86/130/3 88/132/3 87/131/3
f 89/133/2 91/135/2 92/137/2 90/134/2
f 91/136/2 93/139/2 94/140/2 92/138/2
f 95/141/2 97/143/2 98/144/2 96/142/2
f 100/146/4 104/150/4 103/149/4 99/145/4
f 101/147/3 102/148/3 106/153/3 105/151/3
f 105/152/3 106/154/3 110/159/3 109/157/3
f 107/155/2 111/161/2 112/163/2 108/156/2
f 109/158/3 110/160/3 114/167/3 113/165/3
f 111/162/2 115/169/2 116/170/2 112/164/2
f 113/166/3 114/168/3 118/173/3 117/171/3
f 117/172/3 118/174/3 120/177/3 119/175/3
f 119/176/3 120/178/3 125/185/3 124/183/3
f 121/179/2 126/187/2 127/189/2 122/180/2
f 122/181/2 127/190/2 128/192/2 123/182/2
f 124/184/3 125/186/3 130/195/3 129/193/3
f 126/188/2 131/197/2 132/198/2 127/191/2
f 129/194/3 130/196/3 134/201/3 133/199/3
f 133/200/3 134/202/3 136/205/3 135/203/3
f 135/204/3 136/206/3 138/209/3 137/207/3
f 137/208/3 138/210/3 140/213/3 139/211/3
f 139/212/3 140/214/3 146/223/3 145/221/3
f 144/219/5 145/222/5 146/224/5 147/225/5
f 148/227/5 144/220/5 147/226/5 149/229/5
f 150/231/5 148/228/5 149/230/5 151/233/5
f 152/235/5 150/232/5 151/234/5 153/237/5
f 154/239/5 152/236/5 153/238/5 155/240/5
f 159/245/5 156/241/5 157/242/5 160/246/5
f 160/247/5 157/243/5 158/244/5 161/248/5
f 164/251/5 162/249/5 163/250/5 165/252/5
f 141/215/2 166/253/2 167/254/2 142/216/2
f 142/217/2 167/255/2 168/256/2 143/218/2
