# Blender 3.3.1
# www.blender.org
mtllib Stone_2.mtl
o Stone_2
v -17.000000 4.000002 -14.999999
v -17.000000 6.000002 -13.999999
v -17.000000 6.000002 -14.999999
v -17.000000 8.000002 -13.999999
v -17.000000 6.000002 -11.999999
v -17.000000 8.000002 -11.999999
v -17.000000 6.000001 -9.999999
v -17.000000 8.000002 -9.999999
v -17.000000 2.000001 -9.000000
v -17.000000 4.000001 -8.999999
v -17.000000 5.000001 -8.999999
v -17.000000 7.000001 -8.999999
v -17.000000 2.000001 -7.000000
v -17.000000 4.000001 -7.000000
v -17.000000 5.000001 -6.999999
v -17.000000 7.000001 -6.999999
v -17.000000 4.000000 2.000001
v -17.000000 6.000000 2.000001
v -17.000000 3.999999 4.000000
v -17.000000 6.000000 4.000001
v -17.000000 3.999998 12.000001
v -17.000000 5.999998 12.000001
v -17.000000 3.999998 14.000001
v -17.000000 5.999998 14.000001
v -15.000000 4.000002 -14.999999
v -15.000000 6.000002 -14.999999
v -13.000000 4.000002 -14.999999
v -13.000000 6.000002 -14.999999
v -9.000000 0.000002 -15.000000
v -9.000000 2.000002 -15.000000
v -7.000000 0.000002 -15.000000
v -7.000000 2.000002 -15.000000
v -5.000000 0.000002 -15.000000
v -5.000000 2.000002 -15.000000
v -3.000000 0.000002 -15.000000
v -3.000000 2.000002 -15.000000
v -2.000000 -0.000003 16.000000
v -2.000000 1.999997 16.000000
v -1.000000 0.000002 -15.000000
v -1.000000 2.000002 -15.000000
v 0.000000 -0.000003 16.000000
v 0.000000 1.999997 16.000000
v 1.000000 0.000002 -15.000000
v 1.000000 2.000002 -15.000000
v 2.000000 -0.000003 16.000000
v 2.000000 1.999997 16.000000
v 3.000000 0.000002 -15.000000
v 3.000000 2.000002 -15.000000
v 4.000000 -0.000003 16.000000
v 4.000000 1.999997 16.000000
v 5.000000 0.000002 -15.000000
v 5.000000 2.000002 -15.000000
v 10.000000 -0.000003 16.000000
v 10.000000 1.999997 16.000000
v 12.000000 -0.000003 16.000000
v 12.000000 1.999997 16.000000
v 14.000000 -0.000003 16.000000
v 14.000000 1.999997 16.000000
v 16.000000 -0.000003 16.000000
v 16.000000 1.999997 16.000000
v 17.000000 0.000000 -1.000000
v 17.000000 2.000000 -1.000000
v 17.000000 -0.000000 1.000000
v 17.000000 2.000000 1.000000
v 17.000000 -0.000001 8.000000
v 17.000000 1.999999 8.000000
v 17.000000 -0.000002 10.000000
v 17.000000 1.999998 10.000000
v 17.000000 -0.000002 12.000000
v 17.000000 1.999998 12.000000
v 17.000000 -0.000002 14.000000
v 17.000000 1.999998 14.000000
v 17.000000 -0.000003 16.000000
v 17.000000 1.999997 16.000000
v 4.000000 2.000001 -8.000000
v 4.000000 2.000001 -6.000000
v 6.000000 2.000001 -8.000000
v 6.000000 2.000001 -6.000000
vn -1.0000 -0.0000 -0.0000
vn -0.0000 -0.0000 -1.0000
vn -0.0000 -0.0000 1.0000
vn 1.0000 -0.0000 -0.0000
vn -0.0000 1.0000 -0.0000
vt 1.000000 0.000000
vt 0.000000 0.000000
vt 1.000000 1.000000
vt 0.000000 1.000000
vt 1.000000 0.000000
vt 0.000000 0.000000
vt 1.000000 1.000000
vt 0.000000 1.000000
vt 1.000000 0.000000
vt 1.000000 1.000000
vt 0.000000 0.000000
vt 0.000000 1.000000
vt 0.000000 0.000000
vt 0.000000 1.000000
vt 1.000000 0.000000
vt 1.000000 1.000000
vt 1.000000 0.000000
vt 1.000000 1.000000
vt 0.000000 0.000000
vt 0.000000 1.000000
vt 1.000000 0.000000
vt 1.000000 1.000000
vt 0.000000 0.000000
vt 0.000000 1.000000
vt 1.000000 0.000000
vt 1.000000 1.000000
vt 1.000000 0.000000
vt 0.000000 0.000000
vt 1.000000 1.000000
vt 0.000000 1.000000
vt 0.000000 0.000000
vt 0.000000 1.000000
vt 1.000000 0.000000
vt 1.000000 1.000000
vt 0.000000 0.000000
vt 1.000000 0.000000
vt 0.000000 1.000000
vt 1.000000 1.000000
vt 0.000000 0.000000
vt 0.000000 1.000000
vt 1.000000 0.000000
vt 1.000000 1.000000
vt 0.000000 0.000000
vt 0.000000 1.000000
vt 1.000000 0.000000
vt 0.000000 0.000000
vt 1.000000 1.000000
vt 0.000000 1.000000
vt 1.000000 0.000000
vt 0.000000 0.000000
vt 1.000000 1.000000
vt 0.000000 1.000000
vt 0.000000 0.000000
vt 1.000000 0.000000
vt 0.000000 1.000000
vt 1.000000 1.000000
vt 0.000000 0.000000
vt 1.000000 0.000000
vt 0.000000 1.000000
vt 1.000000 1.000000
vt 0.000000 0.000000
vt 1.000000 0.000000
vt 0.000000 1.000000
vt 1.000000 1.000000
vt 1.000000 0.000000
vt 1.000000 1.000000
vt 0.000000 0.000000
vt 0.000000 1.000000
vt 0.000000 0.000000
vt 0.000000 1.000000
vt 0.000000 0.000000
vt 1.000000 0.000000
vt 0.000000 1.000000
vt 1.000000 1.000000
vt 1.000000 0.000000
vt 0.000000 0.000000
vt 1.000000 1.000000
vt 0.000000 1.000000
vt 1.000000 0.000000
vt 1.000000 1.000000
vt 1.000000 0.000000
vt 1.000000 1.000000
vt 0.000000 0.000000
vt 0.000000 1.000000
vt 1.000000 0.000000
vt 1.000000 1.000000
vt 1.000000 0.000000
vt 0.000000 0.000000
vt 1.000000 1.000000
vt 0.000000 1.000000
vt 0.000000 0.000000
vt 1.000000 0.000000
vt 0.000000 1.000000
vt 1.000000 1.000000
vt 1.000000 0.000000
vt 0.000000 0.000000
vt 1.000000 1.000000
vt 0.000000 1.000000
vt 0.000000 0.000000
vt 0.000000 1.000000
vt 0.000000 1.000000
vt 0.000000 0.000000
vt 1.000000 1.000000
vt 1.000000 0.000000
s 0
usemtl stone
f 5/5/1 6/7/1 4/4/1 2/2/1
f 10/12/1 9/11/1 13/15/1 14/16/1
f 15/17/1 16/18/1 12/14/1 11/13/1
f 7/9/1 8/10/1 6/8/1 5/6/1
f 18/20/1 17/19/1 19/21/1 20/22/1
f 23/25/1 24/26/1 22/24/1 21/23/1
f 25/27/2 26/29/2 28/32/2 27/31/2
f 3/3/2 26/30/2 25/28/2 1/1/2
f 32/37/2 31/35/2 29/33/2 30/34/2
f 34/40/2 33/39/2 31/36/2 32/38/2
f 40/47/2 44/55/2 43/53/2 39/45/2
f 41/49/3 42/51/3 38/44/3 37/43/3
f 35/41/2 36/42/2 40/48/2 39/46/2
f 44/56/2 48/63/2 47/61/2 43/54/2
f 50/66/3 46/59/3 45/57/3 49/65/3
f 46/60/3 42/52/3 41/50/3 45/58/3
f 48/64/2 52/68/2 51/67/2 47/62/2
f 57/75/3 58/77/3 56/73/3 55/71/3
f 56/74/3 54/70/3 53/69/3 55/72/3
f 59/79/3 60/80/3 58/78/3 57/76/3
f 61/81/4 62/82/4 64/84/4 63/83/4
f 69/91/4 67/87/4 68/89/4 70/93/4
f 71/95/4 72/97/4 74/100/4 73/99/4
f 69/92/4 70/94/4 72/98/4 71/96/4
f 66/86/4 68/90/4 67/88/4 65/85/4
f 76/102/5 78/104/5 77/103/5 75/101/5
