# Blender v3.2.0 OBJ File: ''
# www.blender.org
o dirt_Plane.002
v -4.000000 2.000000 -4.000000
v 4.000000 2.000000 -4.000000
v 3.000000 2.000000 -4.000000
v 2.000000 2.000000 -4.000000
v 1.000000 2.000000 -4.000000
v 0.000000 2.000000 -4.000000
v -1.000000 2.000000 -4.000000
v -2.000000 2.000000 -4.000000
v -3.000000 2.000000 -4.000000
v -4.000000 2.000000 -3.000000
v -4.000000 2.000000 -2.000000
v -4.000000 2.000000 -1.000000
v 4.000000 2.000000 -2.000000
v 4.000000 2.000000 -3.000000
v 4.000000 3.000000 -3.000000
v 4.000000 3.000000 -4.000000
v -3.000000 3.000000 -4.000000
v -4.000000 3.000000 -4.000000
v 3.000000 3.000000 -4.000000
v 2.000000 3.000000 -4.000000
v 1.000000 3.000000 -4.000000
v 0.000000 3.000000 -4.000000
v -1.000000 3.000000 -4.000000
v -2.000000 3.000000 -4.000000
v -4.000000 3.000000 -3.000000
v -4.000000 3.000000 -2.000000
v -4.000000 3.000000 -1.000000
v 4.000000 3.000000 -2.000000
vn 0.0000 0.0000 -1.0000
vn 1.0000 0.0000 0.0000
vn -1.0000 0.0000 0.0000
s off
f 8//1 9//1 17//1 24//1
f 9//1 1//1 18//1 17//1
f 7//1 8//1 24//1 23//1
f 14//2 2//2 16//2 15//2
f 6//1 7//1 23//1 22//1
f 5//1 6//1 22//1 21//1
f 11//3 12//3 27//3 26//3
f 4//1 5//1 21//1 20//1
f 10//3 11//3 26//3 25//3
f 3//1 4//1 20//1 19//1
f 1//3 10//3 25//3 18//3
f 13//2 14//2 15//2 28//2
f 2//1 3//1 19//1 16//1
